<?xml version="1.0" standalone="no"?>
<!DOCTYPE svg PUBLIC "-//W3C//DTD SVG 1.1//EN" "http://www.w3.org/Graphics/SVG/1.1/DTD/svg11.dtd" >
<svg xmlns="http://www.w3.org/2000/svg" xmlns:xlink="http://www.w3.org/1999/xlink" version="1.1">
<metadata>
Created by FontForge 20170924 at Tue Nov 14 14:04:52 2006
 By root
(c)2006 abd.hamdi@msn.com. All Rights Reserved.
</metadata>
<defs>
<font id="abdkerk" horiz-adv-x="1139" >
  <font-face 
    font-family="Abd Kerkuk"
    font-weight="400"
    font-stretch="normal"
    units-per-em="2048"
    panose-1="2 11 6 4 3 5 4 4 2 4"
    ascent="1638"
    descent="-410"
    x-height="1062"
    cap-height="1466"
    bbox="-190 -911 2202 2047"
    underline-thickness="128"
    underline-position="-544"
    unicode-range="U+0020-FEFC"
  />
<missing-glyph horiz-adv-x="1536" 
d="M256 0v1280h1024v-1280h-1024zM288 32h960v1216h-960v-1216z" />
    <glyph glyph-name="afii62834" unicode="&#xfedf;&#xfe82;" horiz-adv-x="879" arabic-form="isolated" 
d="M303 -49l141 -141l150 149l-141 141zM453 301l141 141v703l-64 100l230 234v-1082l-205 -196l229 -230l-346 -346l-329 330l241 242l-200 198v842l231 -234l-72 -100v-459zM297 1325q180 12 244 152l10 22l-12 -10q-60 -50 -113 -68q-62 -21 -162 -21q-134 0 -258 99
q28 -92 29 -170q1 -61 -29 -174l23 19q46 83 47 135q2 53 -23 104q99 -97 244 -88z" />
    <glyph glyph-name="afii62835" unicode="&#xfee0;&#xfe82;" horiz-adv-x="879" arabic-form="final" 
d="M461 94l141 -141l-143 -143l-142 141zM272 1239l-231 -233l72 -101l2 -379q14 -127 223 -336l6 -6l-227 -227l338 -338l333 334l-241 250l98 98l103 -100h153v180h-176v1098l-231 -232l63 -102v-731l-113 -121l-10 10q-46 46 -112 125q-33 51 -48 102l-2 11v698z
M297 1325q180 12 244 152l10 22l-12 -10q-60 -50 -113 -68q-62 -21 -162 -21q-134 0 -258 99q28 -92 29 -170q1 -61 -29 -174l23 19q46 83 47 135q2 53 -23 104q99 -97 244 -88z" />
    <glyph glyph-name="afii62836" unicode="&#xfedf;&#xfe84;" horiz-adv-x="879" arabic-form="isolated" 
d="M262 1466l50 52q-19 61 -119 61q-82 0 -84 -100q-1 -60 53 -86q-38 -6 -63 -41q-34 -47 -21 -105q6 24 53 70q25 20 99 20h131v64h-99q-31 0 -62.5 25.5t-31.5 52.5q0 36 33 39q37 0 61 -52zM303 -49l141 -141l150 149l-141 141zM453 301l141 141v703l-64 100l230 234
v-1082l-205 -196l229 -230l-346 -346l-329 330l241 242l-200 198v802l231 -234l-72 -100v-419z" />
    <glyph glyph-name="afii62837" unicode="&#xfee0;&#xfe84;" horiz-adv-x="879" arabic-form="final" 
d="M461 94l141 -141l-143 -143l-142 141zM272 1161l-231 -233l72 -101l2 -301q14 -127 223 -336l6 -6l-227 -227l338 -338l333 334l-241 250l98 98l103 -100h153v180h-176v1098l-231 -232l63 -102v-731l-113 -121l-10 10q-46 46 -112 125q-33 51 -48 102l-2 11v620z
M221 1350l60 59q-19 70 -138 72q-98 1 -98 -103q0 -79 64 -112q-57 -9 -86 -62q-24 -43 -11 -108q31 104 174 104h154v72h-115q-36 0 -72 28.5t-36 63.5q0 43 37 45t67 -59z" />
    <glyph glyph-name="afii62838" unicode="&#xfedf;&#xfe88;" horiz-adv-x="879" arabic-form="isolated" 
d="M233 -369l50 52q-19 61 -119 61q-82 0 -84 -86q-1 -74 53 -100q-38 -6 -63 -41q-34 -47 -21 -105q6 24 53 70q25 20 99 20h131v64h-99q-31 0 -62.5 25.5t-31.5 52.5q0 36 33 39q37 0 61 -52zM303 -49l141 -141l150 149l-141 141zM453 301l141 141v703l-64 100l230 234
v-1082l-205 -196l229 -230l-346 -346l-329 330l241 242l-200 198v1082l231 -234l-72 -100v-699z" />
    <glyph glyph-name="afii62839" unicode="&#xfee0;&#xfe88;" horiz-adv-x="879" arabic-form="final" 
d="M317 -49l142 -141l143 143l-141 141zM274 530q8 -43 48 -102q28 -41 112 -125l10 -10l113 121v731l-63 102l231 232v-1098h176v-180h-153l-103 100l-98 -98l241 -250l-333 -334l-338 338l227 227l-6 6q-101 101 -160 181q-53 72 -63 155l-2 17v934l231 -234l-72 -100z
M233 -369l50 52q-19 61 -119 61q-82 0 -84 -86q-1 -74 53 -100q-38 -6 -63 -41q-34 -47 -21 -105q6 24 53 70q25 20 99 20h131v64h-99q-31 0 -62.5 25.5t-31.5 52.5q0 36 33 39q37 0 61 -52z" />
    <glyph glyph-name="afii62840" unicode="&#xfedf;&#xfe8e;" horiz-adv-x="879" arabic-form="isolated" 
d="M303 -49l141 -141l150 149l-141 141zM453 301l141 141v703l-64 100l230 234v-1082l-205 -196l229 -230l-346 -346l-329 330l241 242l-200 198v1082l231 -234l-72 -100v-699z" />
    <glyph glyph-name="afii62841" unicode="&#xfee0;&#xfe8e;" horiz-adv-x="879" arabic-form="final" 
d="M317 -49l142 -141l143 143l-141 141zM274 530q8 -43 48 -102q28 -41 112 -125l10 -10l113 121v731l-63 102l231 232v-1098h176v-180h-153l-103 100l-98 -98l241 -250l-333 -334l-338 338l227 227l-6 6q-101 101 -160 181q-53 72 -63 155l-2 17v934l231 -234l-72 -100z
" />
    <glyph glyph-name="lla1" unicode="&#xe008;&#xfe8e;" horiz-adv-x="879" 
d="M303 -49l141 -141l150 149l-141 141zM453 301l141 141v703l-64 100l230 234v-1082l-205 -196l229 -230l-346 -346l-329 330l241 242l-200 198v1082l231 -234l-72 -100v-699zM646 1859l-13 -31l-10 -28l-14 -43l-48 -160l-40 -150q-21 -78 -71 -78q-33 0 -41 7
q-6 10 -24 62q-8 26 -27 81q-13 29 -38 92l-100 265h100q17 -20 34 -63l41 -104l49 -131q9 21 36 96l39 121q18 57 33 81h93z" />
    <glyph glyph-name="lla2" unicode="&#xe009;&#xfe8e;" horiz-adv-x="879" 
d="M317 -49l142 -141l143 143l-141 141zM274 530q8 -43 48 -102q28 -41 112 -125l10 -10l113 121v731l-63 102l231 232v-1098h176v-180h-153l-103 100l-98 -98l241 -250l-333 -334l-338 338l227 227l-6 6q-101 101 -160 181q-53 72 -63 155l-2 17v934l231 -234l-72 -100z
M606 1859l-13 -31l-10 -28l-14 -43l-48 -160l-40 -150q-21 -78 -71 -78q-33 0 -41 7q-6 10 -24 62q-8 26 -27 81q-13 29 -38 92l-100 265h100q17 -20 34 -63l41 -104l49 -131q9 21 36 96l39 121q18 57 33 81h93z" />
    <glyph glyph-name="afii57369" unicode="&#x6a4;" horiz-adv-x="858" arabic-form="medial" 
d="M-20 201l456 -2l84 82l82 -80h272v180h-262l127 158q44 54 45 143q2 125 -90.5 210t-218.5 85q-25 0 -45 -2q-119 -12 -194 -107q-65 -82 -66 -188q-2 -143 100 -207l35 -22l96 110l-24 17q-45 32 -47 92q-2 59 43 97q40 35 100 42q66 7 110 -32.5t46 -92.5
q1 -32 -19 -66l-6 -10l-188 -227h-434zM348 1111l-125 129l125 127l256 -256l123 129l-123 127zM596 1446l-111 113l-110 -113l110 -111z" />
    <glyph glyph-name="afii57371" unicode="&#x6a4;" horiz-adv-x="1434" arabic-form="final" 
d="M1241 631v217q-9 1 -31 4q-53 0 -69 -29q-31 -56 -13 -100q-55 3 -73 -43q-3 -12 -3 -24q0 -13 3 -25h186zM1403 381h49v-180h-59v-41q0 -58 -47.5 -107.5t-106.5 -58.5q-35 -6 -61 -51l-13 -23l-12 23q-23 45 -76 49q-170 14 -170 194v15h-876q75 41 141 102
q108 99 168 225l20 -147h697v-152q-6 -41 24 -77q27 -33 74 -31q38 1 64 35q20 26 20 71v250h-358v125q0 98 10 131q5 16 31 54.5t90 54.5l8 2q12 102 80 151q18 13 88 15h96q50 1 90 22l29 15v-666zM808 1081l-125 129l125 127l256 -256l123 129l-123 127zM1056 1416
l-111 113l-110 -113l110 -111z" />
    <glyph glyph-name="afii57372" unicode="&#x6a4;" horiz-adv-x="811" arabic-form="initial" 
d="M-31 381h588v96h-369v154q0 195 138 207q12 107 82 157q19 13 75 15h82q93 0 144 30l12 7v-846h-752v180zM549 866q-58 0 -83.5 -40t-10.5 -95q-64 6 -84 -51q-6 -25 2 -53h176v239zM348 1111l-125 129l125 127l256 -256l123 129l-123 127zM596 1446l-111 113l-110 -113
l110 -111z" />
    <glyph glyph-name="afii62958" unicode="&#x67e;" horiz-adv-x="1450" arabic-form="final" 
d="M1378 817l-243 -242l71 -49v-145h-841v127q-142 -203 -345 -307h1442v178l-86 2zM897 -337l-110 112l-111 -112l111 -111zM674 -229l-108 110l108 109l219 -219l107 110l-107 109z" />
    <glyph glyph-name="afii62956" unicode="&#x67e;" horiz-adv-x="639" arabic-form="initial" 
d="M-16 201h524v714l-242 -239l70 -49v-246h-350zM377 -337l-110 112l-111 -112l111 -111zM154 -229l-108 110l108 109l219 -219l107 110l-107 109z" />
    <glyph glyph-name="afii52957" unicode="&#x67e;" horiz-adv-x="505" arabic-form="medial" 
d="M-23 201h543v180h-82v426l-254 -256l80 -49v-121h-287v-180zM367 -337l-110 112l-111 -112l111 -111zM144 -229l-108 110l108 109l219 -219l107 110l-107 109z" />
    <glyph glyph-name="afii62961" unicode="&#x686;" horiz-adv-x="856" arabic-form="final" 
d="M895 381h-147v61h-148v54q0 99 -31 163q-33 69 -127 132q-41 28 -153 34q-106 7 -150 43l-30 25v-209l14 -10q50 -36 119 -37q108 -2 131 -10q29 -6 67 -68q41 -67 37 -123l-2 -28l-18 -5q-155 -43 -281 -161q-152 -142 -149 -279q3 -142 118 -242q101 -88 224 -88
q233 0 317 232l12 33l-36 36l-13 -32q-31 -76 -90.5 -121.5t-134.5 -46.5q-104 -2 -167 84q-56 76 -56 183q0 111 98 192q106 88 264 88h23v-80h309v180zM577 -137l-110 112l-111 -112l111 -111zM354 -29l-108 110l108 109l219 -219l107 110l-107 109z" />
    <glyph glyph-name="afii62959" unicode="&#x686;" horiz-adv-x="1188" arabic-form="initial" 
d="M-29 381h772q-21 111 -75 172q-66 74 -250 74q-23 0 -43 -2h-43q-95 0 -137 18q-56 24 -56 94v168l41 -37q72 -65 223 -71q171 -6 232 -39q181 -96 225 -377h252v-180h-235q14 -134 106 -217q-76 6 -139 65q-68 64 -74 152h-797zM587 -337l-110 112l-111 -112l111 -111z
M364 -229l-108 110l108 109l219 -219l107 110l-107 109z" />
    <glyph glyph-name="afii62960" unicode="&#x686;" horiz-adv-x="1085" arabic-form="medial" 
d="M-35 381h772q-27 141 -103 196q-71 50 -222 50q-23 0 -43 -2h-43q-96 0 -138 18q-55 24 -55 94v168l41 -37q72 -65 223 -71q171 -6 232 -39q181 -96 225 -377h248v-180h-232q14 -133 107 -217q-76 6 -139 65q-68 64 -74 152h-797zM587 -337l-110 112l-111 -112l111 -111z
M364 -229l-108 110l108 109l219 -219l107 110l-107 109z" />
    <glyph glyph-name="afii62962" unicode="&#x698;" horiz-adv-x="532" arabic-form="final" 
d="M463 438q-31 93 -84 154q-41 48 -125 125l-51 47q21 -53 22 -102q2 -124 -90 -203l58 -21q69 -25 111 -128q37 -92 30 -173q-12 -142 -132.5 -234.5t-271.5 -92.5q-31 0 -61 4l-59 8l55 -19q124 -43 237 -43q226 0 342 193q64 106 64 225v23h43v180h-68q-5 12 -20 57z
M158 1081l-125 129l125 127l256 -256l123 129l-123 127zM406 1416l-111 113l-110 -113l110 -111z" />
    <glyph glyph-name="afii62964" unicode="&#x6a9;" horiz-adv-x="1850" arabic-form="final" 
d="M418 381h1071v-178q0 -49 32 -81t80 -28q36 3 60 35t24 72v303h-1122l643 852v-361h-88l-231 -311h950v-303h43v-180h-41v-68q0 -61 -59 -129q-29 -34 -97 -47t-86 -47l-10 -19l-10 17q-21 36 -82 56q-70 23 -84 36q-74 66 -74 145v56h-919v180zM312 382h117l-1 -180
h-403q75 42 134 106q69 75 106 185z" />
    <glyph glyph-name="afii52305" unicode="&#x6a9;" horiz-adv-x="1440" arabic-form="initial" 
d="M-12 381h1071v-178q0 -49 32 -81t80 -28q36 3 60 35t24 72v303h-1122l643 852v-361h-88l-231 -311h950l2 -551q0 -61 -59 -129q-29 -34 -97 -47t-86 -47l-10 -19l-10 17q-21 36 -82 56q-70 23 -84 36q-74 66 -74 145v56h-919v180z" />
    <glyph glyph-name="afii52306" unicode="&#x6a9;" horiz-adv-x="1440" arabic-form="medial" 
d="M-12 381h1071v-178q0 -49 32 -81t80 -28q36 3 60 35t24 72v303h-1122l643 852v-361h-88l-231 -311h950v-303h43v-180h-41v-68q0 -61 -59 -129q-29 -34 -97 -47t-86 -47l-10 -19l-10 17q-21 36 -82 56q-70 23 -84 36q-74 66 -74 145v56h-919v180z" />
    <glyph glyph-name="afii62967" unicode="&#x6af;" horiz-adv-x="1850" arabic-form="final" 
d="M418 381h1071v-178q0 -49 32 -81t80 -28q36 3 60 35t24 72v303h-1122l643 852v-361h-88l-231 -311h950v-303h43v-180h-41v-68q0 -61 -59 -129q-29 -34 -97 -47t-86 -47l-10 -19l-10 17q-21 36 -82 56q-70 23 -84 36q-74 66 -74 145v56h-919v180zM1160 1362l-639 -811
l-13 119l652 818v-126zM312 382h117l-1 -180h-403q75 42 134 106q69 75 106 185z" />
    <glyph glyph-name="afii62965" unicode="&#x6af;" horiz-adv-x="1440" arabic-form="initial" 
d="M-12 381h1071v-178q0 -49 32 -81t80 -28q36 3 60 35t24 72v303h-1122l643 852v-361h-88l-231 -311h950l2 -551q0 -61 -59 -129q-29 -34 -97 -47t-86 -47l-10 -19l-10 17q-21 36 -82 56q-70 23 -84 36q-74 66 -74 145v56h-919v180zM700 1362l-639 -811l-13 119l652 818
v-126z" />
    <glyph glyph-name="afii62966" unicode="&#x6af;" horiz-adv-x="1440" arabic-form="medial" 
d="M-12 381h1071v-178q0 -49 32 -81t80 -28q36 3 60 35t24 72v303h-1122l643 852v-361h-88l-231 -311h950v-303h43v-180h-41v-68q0 -61 -59 -129q-29 -34 -97 -47t-86 -47l-10 -19l-10 17q-21 36 -82 56q-70 23 -84 36q-74 66 -74 145v56h-919v180zM700 1362l-639 -811
l-13 119l652 818v-126z" />
    <glyph glyph-name="afii52364" unicode="&#x6cc;" horiz-adv-x="936" arabic-form="final" 
d="M451 909l-189 -282q-36 -53 -37 -88q-1 -38 25 -82l295 -320q18 -30 18 -65q0 -53 -47 -107q-64 -74 -184 -76q-76 -1 -142 41q-73 47 -73 121q0 101 71 101q32 0 48 -48q23 54 2 95q-31 47 -70 59q15 27 12 61q-3 37 -37 62t-71 27q-15 1 -27 -5q45 -63 47 -116
q1 -34 -21.5 -103t-21.5 -108q2 -130 116 -212q105 -75 238 -69q119 5 222 99q98 89 98 202q0 50 -18 90l-5 11l-270 295q-5 5 -16 22q-5 15 -5 28q0 19 11 38l53 73l410 -452h61v180h-20z" />
    <glyph glyph-name="afii52399" unicode="&#x621;" horiz-adv-x="747" arabic-form="isolated" 
d="M659 362h-198q-56 0 -106 49q-46 45 -51 97q0 26 21 41t52 20q47 0 90 -48q14 38 10 78q-5 21 -26 50q48 32 51 107q2 49 -35 92q3 -36 0 -58q-8 -52 -105 -69q-34 -6 -114 -16q-104 -48 -104 -155q0 -66 42 -121t121 -81l9 -3q-97 -24 -147 -109q-18 -31 -18 -70
q0 -21 18 -116q15 63 15 65q12 33 41 54q55 39 186 49l248 18v126z" />
    <glyph glyph-name="afii62753" unicode="&#x622;" horiz-adv-x="377" arabic-form="final" 
d="M397 201v180h-80v881l-243 -242l82 -49v-770h241zM35 1290q1 55 -23 105q94 -76 208 -76q112 0 186 45q54 33 104 117q-106 -88 -260 -99q-148 -11 -285 99q28 -93 29 -170q3 -47 5 -94q3 -50 -5 -80q39 47 41 153z" />
    <glyph glyph-name="afii62754" unicode="&#x623;" horiz-adv-x="485" arabic-form="final" 
d="M516 201v180h-82v1094l-244 -242l82 -49v-983h244zM154 1139h-101q-28 0 -53.5 25t-28.5 50q0 31 39 31q24 0 45 -24q6 18 6 39q0 6 -14 26q15 9 19 23q19 44 -11 80q3 -19 0 -31q-6 -23 -55 -35q-19 -2 -57 -8q-53 -26 -54 -74q-2 -66 84 -108l4 -3q-51 -10 -75 -54.5
t-13 -96.5q8 39 40 62.5t98 23.5h127v74z" />
    <glyph glyph-name="afii62755" unicode="&#x624;" horiz-adv-x="666" arabic-form="final" 
d="M233 381q-6 41 7 72q23 54 92 57q14 1 24 -2q-26 26 -28 67q-2 40 25.5 67.5t70.5 29.5q24 1 43 -10v-281h-234zM616 166v35h66v180h-70v512l-155 -59q-24 -9 -86 -19q-50 -8 -78 -27q-55 -38 -55 -106q0 -28 12 -72h-14q-70 0 -95 -35q-22 -31 -49 -67q-24 -49 -24 -150
v-157h403v-31q0 -64 -39 -139q-33 -64 -118 -106q-78 -38 -156 -40q-41 -1 -84 15l-49 18l30 -22q109 -80 230 -82q88 -1 166 51q165 111 165 301zM530 1141h-145q-38 0 -78 37q-36 33 -39 69q0 43 54 43q38 0 67 -33q10 19 8 56q-1 13 -20 39q37 25 39 82q1 35 -27 65
q2 -10 2 -22q0 -11 -2 -23q-9 -36 -78 -51q-54 -4 -84 -10q-73 -37 -73 -105q0 -99 118 -158l4 -2q-57 -12 -95 -61.5t-38 -110.5q0 -20 7 -47q22 101 148 120q23 3 50 3h182v109z" />
    <glyph glyph-name="afii62756" unicode="&#x625;" horiz-adv-x="391" arabic-form="final" 
d="M397 201v180h-82v1094l-243 -242l82 -49v-983h243zM414 -246h-125q-34 0 -70 33q-32 29 -35 61q0 37 47 37q31 0 58 -28q8 21 8 49q0 12 -16 35q12 10 22 26q24 58 -14 103v-39q-6 -30 -68 -45q-24 -2 -74 -11q-64 -30 -65 -86q-2 -80 104 -141l7 -4q-68 -13 -98.5 -68
t-12.5 -122q6 49 53 79q42 27 119 27h160v94z" />
    <glyph glyph-name="afii62759" unicode="&#x626;" horiz-adv-x="936" arabic-form="final" 
d="M451 909l-189 -282q-36 -53 -37 -88q-1 -38 25 -82l295 -320q18 -30 18 -65q0 -53 -47 -107q-64 -74 -184 -76q-76 -1 -142 41q-73 47 -73 121q0 101 71 101q32 0 48 -48q23 54 2 95q-31 47 -70 59q15 27 12 61q-3 37 -37 62t-71 27q-15 1 -27 -5q45 -63 47 -116
q1 -34 -21.5 -103t-21.5 -108q2 -130 116 -212q105 -75 238 -69q119 5 222 99q98 89 98 202q0 50 -18 90l-5 11l-270 295q-5 5 -16 22q-5 15 -5 28q0 19 11 38l53 73l410 -452h61v180h-20zM457 1090h-152q-43 0 -82 38q-37 35 -39 74q-1 20 17 33q15 11 39 14q36 0 69 -37
q11 29 8 60q-3 15 -20 39q37 24 39 82q1 38 -27 71q3 -24 0 -45q-6 -40 -80 -53q-13 -2 -88 -12q-80 -38 -80 -119q0 -67 53 -116q30 -28 72 -40l7 -2q-77 -18 -114 -85q-35 -63 -20 -142q14 56 64 92q41 30 143 37l191 14v97z" />
    <glyph glyph-name="afii62757" unicode="&#x626;" horiz-adv-x="666" arabic-form="initial" 
d="M-14 201h551v714l-271 -215l90 -86v-233h-372zM457 1090h-152q-43 0 -82 38q-37 35 -39 74q-1 20 17 33q15 11 39 14q36 0 69 -37q11 29 8 60q-3 15 -20 39q37 24 39 82q1 38 -27 71q3 -24 0 -45q-6 -40 -80 -53q-13 -2 -88 -12q-80 -38 -80 -119q0 -67 53 -116
q30 -28 72 -40l7 -2q-75 -18 -113 -84q-20 -35 0 -143q6 25 13.5 50.5t29.5 41.5q41 30 143 37l191 14v97z" />
    <glyph glyph-name="afii62758" unicode="&#x626;" horiz-adv-x="520" arabic-form="medial" 
d="M-23 201h543v180h-82v426l-254 -256l80 -49v-121h-282zM457 1090h-152q-43 0 -82 38q-37 35 -39 74q-1 20 17 33q15 11 39 14q36 0 69 -37q11 29 8 60q-3 15 -20 39q37 24 39 82q1 38 -27 71q3 -24 0 -45q-6 -40 -80 -53q-13 -2 -88 -12q-80 -38 -80 -119q0 -67 53 -116
q30 -28 72 -40l7 -2q-75 -18 -113 -84q-20 -35 0 -143q6 25 13.5 50.5t29.5 41.5q41 30 143 37l191 14v97z" />
    <glyph glyph-name="afii62760" unicode="&#x627;" horiz-adv-x="379" arabic-form="final" 
d="M397 201v180h-82v1094l-243 -242l82 -49v-983h243z" />
    <glyph glyph-name="afii62763" unicode="&#x628;" horiz-adv-x="1450" arabic-form="final" 
d="M1051 -190l-138 139l-137 -139l137 -138zM1378 817l-243 -242l71 -49v-145h-841v127q-142 -203 -345 -307h1442l1 179l-87 1z" />
    <glyph glyph-name="afii62761" unicode="&#x628;" horiz-adv-x="639" arabic-form="initial" 
d="M442 -219l-133 135l-133 -135l133 -133zM-16 201h524v714l-242 -239l70 -49v-246h-352v-180z" />
    <glyph glyph-name="afii62762" unicode="&#x628;" horiz-adv-x="508" arabic-form="medial" 
d="M428 -76l-137 139l-137 -139l137 -137zM-18 201h573v180h-119v422l-243 -242l63 -61v-119h-274v-180z" />
    <glyph glyph-name="afii62764" unicode="&#x629;" horiz-adv-x="719" arabic-form="final" 
d="M231 381v78q0 66 50 116t118 50q50 0 95 -29v-215h-263zM737 201v180h-63v745l-244 -174l64 -63v-131q-62 21 -121 22q-153 2 -250 -137q-60 -86 -60 -223v-219h674zM287 1155l-115 117l115 114l231 -231l113 117l-113 114z" />
    <glyph glyph-name="afii62767" unicode="&#x62a;" horiz-adv-x="1450" arabic-form="final" 
d="M680 1053l-125 129l125 127l256 -256l123 129l-123 127zM1378 817l-243 -242l71 -49v-145h-841v127q-142 -203 -345 -307h1442v178l-86 2z" />
    <glyph glyph-name="afii62765" unicode="&#x62a;" horiz-adv-x="639" arabic-form="initial" 
d="M141 1081l-125 129l125 127l256 -256l123 129l-123 127zM-16 201h524v714l-242 -239l70 -49v-246h-350z" />
    <glyph glyph-name="afii62766" unicode="&#x62a;" horiz-adv-x="520" arabic-form="medial" 
d="M158 1081l-125 129l125 127l256 -256l123 129l-123 127zM-23 201h543v180h-82v426l-254 -256l80 -49v-121h-282z" />
    <glyph glyph-name="afii62770" unicode="&#x62b;" horiz-adv-x="1450" arabic-form="final" 
d="M649 889l-125 129l125 127l256 -256l123 129l-123 127zM909 1264l-137 139l-137 -139l137 -138zM1378 817l-243 -242l71 -49v-145h-841v127q-142 -203 -345 -307h1442v178l-86 2z" />
    <glyph glyph-name="afii62768" unicode="&#x62b;" horiz-adv-x="639" arabic-form="initial" 
d="M379 1362l-111 113l-110 -113l110 -111zM143 991l-114 117l114 115l232 -232l112 117l-112 115zM-16 201h524v714l-242 -239l70 -49v-246h-350z" />
    <glyph glyph-name="afii62769" unicode="&#x62b;" horiz-adv-x="505" arabic-form="medial" 
d="M158 1081l-125 129l125 127l256 -256l123 129l-123 127zM-23 201h543v180h-82v426l-254 -256l80 -49v-121h-287v-180zM406 1416l-111 113l-110 -113l110 -111z" />
    <glyph glyph-name="afii62773" unicode="&#x62c;" horiz-adv-x="856" arabic-form="final" 
d="M590 23l-123 124l-123 -124l123 -123zM895 381h-147v61h-148v54q0 99 -31 163q-33 69 -127 132q-41 28 -153 34q-106 7 -150 43l-30 25v-209l14 -10q50 -36 119 -37q108 -2 131 -10q29 -6 67 -68q41 -67 37 -123l-2 -28l-18 -5q-155 -43 -281 -161q-152 -142 -149 -279
q3 -142 118 -242q101 -88 224 -88q233 0 317 232l12 33l-36 36l-13 -32q-31 -76 -90.5 -121.5t-134.5 -46.5q-104 -2 -167 84q-56 76 -56 183q0 111 98 192q106 88 264 88h23v-80h309v180z" />
    <glyph glyph-name="afii62771" unicode="&#x62c;" horiz-adv-x="1188" arabic-form="initial" 
d="M582 -133l-131 127l-125 -133l125 -123zM-29 381h772q-21 111 -75 172q-66 74 -250 74q-23 0 -43 -2h-43q-95 0 -137 18q-56 24 -56 94v168l41 -37q72 -65 223 -71q171 -6 232 -39q181 -96 225 -377h252v-180h-235q14 -134 106 -217q-76 6 -139 65q-68 64 -74 152h-797z
" />
    <glyph glyph-name="afii62772" unicode="&#x62c;" horiz-adv-x="1085" arabic-form="medial" 
d="M575 -133l-131 127l-125 -133l125 -123zM-35 381h772q-27 141 -103 196q-71 50 -222 50q-23 0 -43 -2h-43q-96 0 -138 18q-55 24 -55 94v168l41 -37q72 -65 223 -71q171 -6 232 -39q181 -96 225 -377h248v-180h-232q14 -133 107 -217q-76 6 -139 65q-68 64 -74 152h-797z
" />
    <glyph glyph-name="afii62776" unicode="&#x62d;" horiz-adv-x="856" arabic-form="final" 
d="M895 381h-147v61h-148v54q0 99 -31 163q-33 69 -127 132q-41 28 -153 34q-106 7 -150 43l-30 25v-209l14 -10q50 -36 119 -37q108 -2 131 -10q29 -6 67 -68q41 -67 37 -123l-2 -28l-18 -5q-155 -43 -281 -161q-152 -142 -149 -279q3 -142 118 -242q101 -88 224 -88
q233 0 317 232l12 33l-36 36l-13 -32q-31 -76 -90.5 -121.5t-134.5 -46.5q-104 -2 -167 84q-56 76 -56 183q0 111 98 192q106 88 264 88h23v-80h309v180z" />
    <glyph glyph-name="afii62774" unicode="&#x62d;" horiz-adv-x="1188" arabic-form="initial" 
d="M-29 381h772q-21 111 -75 172q-66 74 -250 74q-23 0 -43 -2h-43q-95 0 -137 18q-56 24 -56 94v168l41 -37q72 -65 223 -71q171 -6 232 -39q181 -96 225 -377h252v-180h-235q14 -134 106 -217q-76 6 -139 65q-68 64 -74 152h-797z" />
    <glyph glyph-name="afii62775" unicode="&#x62d;" horiz-adv-x="1085" arabic-form="medial" 
d="M-35 381h772q-27 141 -103 196q-71 50 -222 50q-23 0 -43 -2h-43q-96 0 -138 18q-55 24 -55 94v168l41 -37q72 -65 223 -71q171 -6 232 -39q181 -96 225 -377h248v-180h-232q14 -133 107 -217q-76 6 -139 65q-68 64 -74 152h-797z" />
    <glyph glyph-name="afii62779" unicode="&#x62e;" horiz-adv-x="856" arabic-form="final" 
d="M373 1231l-121 125l-123 -125l123 -123zM895 381h-147v61h-148v54q0 99 -31 163q-33 69 -127 132q-41 28 -153 34q-106 7 -150 43l-30 25v-209l14 -10q50 -36 119 -37q108 -2 131 -10q29 -6 67 -68q41 -67 37 -123l-2 -28l-18 -5q-155 -43 -281 -161q-152 -142 -149 -279
q3 -142 118 -242q101 -88 224 -88q233 0 317 232l12 33l-36 36l-13 -32q-31 -76 -90.5 -121.5t-134.5 -46.5q-104 -2 -167 84q-56 76 -56 183q0 111 98 192q106 88 264 88h23v-80h309v180z" />
    <glyph glyph-name="afii62777" unicode="&#x62e;" horiz-adv-x="1188" arabic-form="initial" 
d="M489 1229l-131 127l-125 -133l125 -123zM-29 381h772q-21 111 -75 172q-66 74 -250 74q-23 0 -43 -2h-43q-95 0 -137 18q-56 24 -56 94v168l41 -37q72 -65 223 -71q171 -6 232 -39q181 -96 225 -377h252v-180h-235q14 -134 106 -217q-76 6 -139 65q-68 64 -74 152h-797z
" />
    <glyph glyph-name="afii62778" unicode="&#x62e;" horiz-adv-x="1085" arabic-form="medial" 
d="M535 1137l-132 127l-124 -134l124 -122zM-35 381h772q-27 141 -103 196q-71 50 -222 50q-23 0 -43 -2h-43q-96 0 -138 18q-55 24 -55 94v168l41 -37q72 -65 223 -71q171 -6 232 -39q181 -96 225 -377h248v-180h-232q14 -133 107 -217q-76 6 -139 65q-68 64 -74 152h-797z
" />
    <glyph glyph-name="afii62780" unicode="&#x62f;" horiz-adv-x="1190" arabic-form="final" 
d="M1198 201v180h-29v338h-929v98l65 88l-223 92v-460h913v-336q0 -35 -24 -62q-19 -22 -56 -28q-35 -3 -65 24q-29 32 -29 68v178h-739v-180h580q-7 -134 63 -201q18 -14 92 -37q69 -22 94 -61l11 -17l10 19q18 34 85.5 52.5t88.5 43.5q70 83 65 201h27z" />
    <glyph glyph-name="afii62781" unicode="&#x630;" horiz-adv-x="1190" arabic-form="final" 
d="M438 1284l-135 137l-135 -137l135 -135zM1198 201v180h-29v338h-929v98l65 88l-223 92v-460h913v-336q0 -35 -24 -62q-19 -22 -56 -28q-35 -3 -65 24q-29 32 -29 68v178h-739v-180h580q-7 -134 63 -201q18 -14 92 -37q69 -22 94 -61l11 -17l10 19q18 34 85.5 52.5
t88.5 43.5q70 83 65 201h27z" />
    <glyph glyph-name="afii62782" unicode="&#x631;" horiz-adv-x="532" arabic-form="final" 
d="M551 201v180h-68q-2 11 -20 57q-52 134 -209 279l-51 47q21 -53 22 -102q2 -124 -90 -203l58 -21q69 -25 111 -128q38 -93 30 -173q-15 -152 -158 -243q-127 -80 -307 -80h-29l25 -11q114 -50 231 -51q226 -2 348 201q67 111 64 248h43z" />
    <glyph glyph-name="afii62783" unicode="&#x632;" horiz-adv-x="532" arabic-form="final" 
d="M358 1233l-137 139l-137 -139l141 -137zM463 438q-31 93 -84 154q-41 48 -125 125l-51 47q21 -53 22 -102q2 -124 -90 -203l58 -21q69 -25 111 -128q37 -92 30 -173q-12 -142 -132.5 -234.5t-271.5 -92.5q-31 0 -61 4l-59 8l55 -19q124 -43 237 -43q226 0 342 193
q64 106 64 225v23h43v180h-68q-5 12 -20 57z" />
    <glyph glyph-name="afii62786" unicode="&#x633;" horiz-adv-x="1614" arabic-form="final" 
d="M1628 381h-29v557l-233 -238l78 -53v-266h-184v473l-244 -236l80 -53v-184h-213v410l-246 -238l70 -45l8 -49q9 -57 10 -135q3 -367 -295 -371q-181 -2 -258 158q-21 43 -22 98q-2 78 57 186q35 64 80 142q32 72 35 139q2 38 -17 98q-10 47 -14 82q0 49 43 92l6 6
q-21 12 -53 15q-47 0 -77 -31t-32 -78q-1 -32 17 -57q-133 32 -136 -109q-1 -58 35 -106l6 -8v6q0 89 58 90q69 2 71 -62q1 -45 -51 -145q-21 -38 -65 -117t-45 -192q-2 -156 98 -262q111 -118 311 -109q339 15 383 379l4 33h764v180z" />
    <glyph glyph-name="afii62784" unicode="&#x633;" horiz-adv-x="1208" arabic-form="initial" 
d="M-16 201h1204v737l-234 -242l78 -49v-266h-203v475l-243 -242l82 -49v-184h-213v385l-246 -242l82 -49v-94h-307v-180z" />
    <glyph glyph-name="afii62785" unicode="&#x633;" horiz-adv-x="1208" arabic-form="medial" 
d="M-16 201h1235v180h-31v557l-234 -242l78 -49v-266h-203v475l-243 -242l82 -49v-184h-213v385l-246 -242l82 -49v-94h-307v-180z" />
    <glyph glyph-name="afii62789" unicode="&#x634;" horiz-adv-x="1614" arabic-form="final" 
d="M1628 381h-29v557l-233 -238l78 -53v-266h-184v473l-244 -236l80 -53v-184h-213v410l-246 -238l70 -45l8 -49q9 -57 10 -135q3 -367 -295 -371q-181 -2 -258 158q-21 43 -22 98q-2 78 57 186q35 64 80 142q32 72 35 139q2 38 -17 98q-10 47 -14 82q0 49 43 92l6 6
q-21 12 -53 15q-47 0 -77 -31t-32 -78q-1 -32 17 -57q-133 32 -136 -109q-1 -58 35 -106l6 -8v6q0 89 58 90q69 2 71 -62q1 -45 -51 -145q-21 -38 -65 -117t-45 -192q-2 -156 98 -262q111 -118 311 -109q339 15 383 379l4 33h764v180zM1202 1346l-110 112l-111 -112
l111 -111zM979 1014l-109 110l109 109l219 -219l107 110l-107 109z" />
    <glyph glyph-name="afii62787" unicode="&#x634;" horiz-adv-x="1290" arabic-form="initial" 
d="M823 1346l-110 112l-111 -112l111 -111zM600 1014l-108 110l108 109l219 -219l107 110l-107 109zM-16 201h1204v737l-234 -242l78 -49v-266h-203v475l-243 -242l82 -49v-184h-213v385l-246 -242l82 -49v-94h-307v-180z" />
    <glyph glyph-name="afii62788" unicode="&#x634;" horiz-adv-x="1208" arabic-form="medial" 
d="M823 1346l-110 112l-111 -112l111 -111zM600 1014l-108 110l108 109l219 -219l107 110l-107 109zM-16 201h1235v180h-31v557l-234 -242l78 -49v-266h-203v475l-243 -242l82 -49v-184h-213v385l-246 -242l82 -49v-94h-307v-180z" />
    <glyph glyph-name="afii62792" unicode="&#x635;" horiz-adv-x="1810" arabic-form="final" 
d="M895 381q6 42 45 100q28 42 86 65q53 20 107 15h464v-360q0 -11 2 -19q0 -38 -29.5 -68.5t-66.5 -27.5q-61 6 -71 98l-2 19v178h-535zM1120 741q-92 0 -164 -69q-60 -57 -86 -123v276q-14 -49 -26 -67q-5 -8 -70 -80q-41 -46 -135 -60l68 -57l8 -82q6 -62 6 -110
q0 -328 -217 -381q-30 -7 -68 -8q-109 -2 -183.5 72.5t-74.5 183.5q0 90 76 239q71 138 63 203q0 13 -18 90q-12 52 -12 84q0 62 45 96l8 6q-21 12 -53 15q-47 0 -77 -31t-32 -78q-1 -32 17 -57q-65 18 -104.5 -18t-39.5 -105q0 -72 49 -100v6q0 29 16 55q19 30 46 27
q55 -13 55 -70q0 -52 -53 -149q-29 -55 -60 -113q-19 -85 -20 -154q-2 -173 109 -284.5t284 -108.5q176 3 285 117q102 106 102 266v29h398v-66q0 -129 180 -180q46 -13 65 -57l11 -25l14 31q15 33 67 51q53 13 105 59q65 58 65 121v66h58v180h-49v360h-658z" />
    <glyph glyph-name="afii62790" unicode="&#x635;" horiz-adv-x="1325" arabic-form="initial" 
d="M1114 201v360h-516q-119 0 -188 -96q-25 -34 -50 -84h586v-178l2 -19q10 -90 72 -98q36 -4 66 27.5t30 68.5q0 13 -2 19zM-18 381h211v188l-80 58q72 23 131 75q70 61 108 127v-280q19 88 94 141q72 51 164 51h676v-606q0 -65 -65 -121q-45 -39 -110 -61q-46 -16 -62 -49
l-15 -31l-10 25q-17 43 -66 57q-87 25 -137 78q-43 46 -43 102v66h-794z" />
    <glyph glyph-name="afii62791" unicode="&#x635;" horiz-adv-x="1286" arabic-form="medial" 
d="M1114 201v360h-516q-119 0 -188 -96q-25 -34 -50 -84h586v-178l2 -19q10 -90 72 -98q36 -4 66 27.5t30 68.5q0 13 -2 19zM-18 381h211v188l-80 58q72 23 131 75q70 61 108 127v-280q19 88 94 141q72 51 164 51h676v-360h27v-180h-37v-68q0 -62 -62 -119q-18 -16 -91 -54
q-62 -31 -74 -56l-15 -31l-10 25q-17 43 -66 57q-87 25 -137 78q-43 46 -43 102v66h-794z" />
    <glyph glyph-name="afii62795" unicode="&#x636;" horiz-adv-x="1810" arabic-form="final" 
d="M952 1239l-131 133l-131 -133l131 -131zM895 381q6 42 45 100q28 42 86 65q53 20 107 15h464v-360q0 -11 2 -19q0 -38 -29.5 -68.5t-66.5 -27.5q-61 6 -71 98l-2 19v178h-535zM1120 741q-92 0 -164 -69q-60 -57 -86 -123v276q-14 -49 -26 -67q-5 -8 -70 -80
q-41 -46 -135 -60l68 -57l8 -82q6 -62 6 -110q0 -328 -217 -381q-30 -7 -68 -8q-109 -2 -183.5 72.5t-74.5 183.5q0 90 76 239q71 138 63 203q0 13 -18 90q-12 52 -12 84q0 62 45 96l8 6q-21 12 -53 15q-47 0 -77 -31t-32 -78q-1 -32 17 -57q-65 18 -104.5 -18t-39.5 -105
q0 -72 49 -100v6q0 29 16 55q19 30 46 27q55 -13 55 -70q0 -52 -53 -149q-29 -55 -60 -113q-19 -85 -20 -154q-2 -173 109 -284.5t284 -108.5q176 3 285 117q102 106 102 266v29h398v-66q0 -129 180 -180q46 -13 65 -57l11 -25l14 31q15 33 67 51q53 13 105 59q65 58 65 121
v66h58v180h-49v360h-658z" />
    <glyph glyph-name="afii62793" unicode="&#x636;" horiz-adv-x="1325" arabic-form="initial" 
d="M1114 201v360h-516q-119 0 -188 -96q-25 -34 -50 -84h586v-178l2 -19q10 -90 72 -98q36 -4 66 27.5t30 68.5q0 13 -2 19zM469 1247l-131 133l-131 -133l131 -131zM-18 381h211v188l-80 58q72 23 131 75q70 61 108 127v-280q19 88 94 141q72 51 164 51h676v-606
q0 -65 -65 -121q-45 -39 -110 -61q-46 -16 -62 -49l-15 -31l-10 25q-17 43 -66 57q-87 25 -137 78q-43 46 -43 102v66h-794z" />
    <glyph glyph-name="afii62794" unicode="&#x636;" horiz-adv-x="1303" arabic-form="medial" 
d="M1114 201v360h-516q-119 0 -188 -96q-25 -34 -50 -84h586v-178l2 -19q10 -90 72 -98q36 -4 66 27.5t30 68.5q0 13 -2 19zM469 1247l-131 133l-131 -133l131 -131zM-18 381h211v188l-80 58q72 23 131 75q70 61 108 127v-280q19 88 94 141q72 51 164 51h676v-360h27v-180
h-37v-68q0 -62 -62 -119q-18 -16 -91 -54q-62 -31 -74 -56l-15 -31l-10 25q-17 43 -66 57q-87 25 -137 78q-43 46 -43 102v66h-794z" />
    <glyph glyph-name="afii62798" unicode="&#x637;" horiz-adv-x="1384" arabic-form="final" 
d="M1106 86q-62 6 -72 98l-2 19v178h-586q8 19 50 84q62 96 188 96h516v-360q0 -11 2 -19q0 -35 -31 -69q-29 -30 -65 -27zM147 446l-116 -245h833v-66q0 -70 57 -120q50 -45 123 -60q41 -9 66 -61l10 -21l15 31q18 38 69 51q55 15 101 59q57 55 57 119v68h37v180h-27v360
h-676q-112 0 -188 -71q-52 -48 -68 -121v930l-243 -242l82 -49v-807h-78z" />
    <glyph glyph-name="afii62796" unicode="&#x637;" horiz-adv-x="1303" arabic-form="initial" 
d="M1020 86q-62 6 -72 98l-2 19v178h-586q8 19 50 84q62 96 188 96h516v-360q0 -11 2 -19q0 -35 -31 -69q-29 -30 -65 -27zM-16 201h794v-66q0 -113 180 -180q51 -19 66 -57l10 -25l15 31q17 34 69 51q57 17 106 68q52 55 52 110v608h-666q-112 0 -188 -71q-52 -48 -68 -121
v930l-243 -242l82 -49v-807h-211z" />
    <glyph glyph-name="afii62797" unicode="&#x637;" horiz-adv-x="1303" arabic-form="medial" 
d="M1020 86q-62 6 -72 98l-2 19v178h-586q8 19 50 84q62 96 188 96h516v-360q0 -11 2 -19q0 -35 -31 -69q-29 -30 -65 -27zM-16 201h794v-66q0 -113 180 -180q51 -19 66 -57l10 -25l15 31q17 34 69 51q57 17 106 68q52 55 52 110v68h37v180h-27v360h-676q-112 0 -188 -71
q-52 -48 -68 -121v930l-243 -242l82 -49v-807h-211z" />
    <glyph glyph-name="afii62801" unicode="&#x638;" horiz-adv-x="1384" arabic-form="final" 
d="M1106 86q-62 6 -72 98l-2 19v178h-586q8 19 50 84q62 96 188 96h516v-360q0 -11 2 -19q0 -35 -31 -69q-29 -30 -65 -27zM965 1239l-131 133l-132 -133l132 -131zM147 446l-116 -245h833v-66q0 -70 57 -120q50 -45 123 -60q41 -9 66 -61l10 -21l15 31q18 38 69 51
q55 15 101 59q57 55 57 119v68h37v180h-27v360h-676q-112 0 -188 -71q-52 -48 -68 -121v930l-243 -242l82 -49v-807h-78z" />
    <glyph glyph-name="afii62799" unicode="&#x638;" horiz-adv-x="1303" arabic-form="initial" 
d="M1020 86q-62 6 -72 98l-2 19v178h-586q8 19 50 84q62 96 188 96h516v-360q0 -11 2 -19q0 -35 -31 -69q-29 -30 -65 -27zM879 1239l-131 133l-132 -133l132 -131zM-16 201h794v-66q0 -113 180 -180q51 -19 66 -57l10 -25l15 31q17 34 69 51q57 17 106 68q52 55 52 110v608
h-666q-112 0 -188 -71q-52 -48 -68 -121v930l-243 -242l82 -49v-807h-211z" />
    <glyph glyph-name="afii62800" unicode="&#x638;" horiz-adv-x="1303" arabic-form="medial" 
d="M1020 86q-62 6 -72 98l-2 19v178h-586q8 19 50 84q62 96 188 96h516v-360q0 -11 2 -19q0 -35 -31 -69q-29 -30 -65 -27zM879 1239l-131 133l-132 -133l132 -131zM-16 201h794v-66q0 -113 180 -180q51 -19 66 -57l10 -25l15 31q17 34 69 51q57 17 106 68q52 55 52 110v68
h37v180h-27v360h-676q-112 0 -188 -71q-52 -48 -68 -121v930l-243 -242l82 -49v-807h-211z" />
    <glyph glyph-name="afii62804" unicode="&#x639;" horiz-adv-x="1008" arabic-form="final" 
d="M496 301l106 -100h436v180h-424l179 166q26 24 77 24q62 0 82 -65q19 20 19 57q0 50 -39 80q-17 17 -68 8l6 13q7 15 7 28q0 35 -46 82q-29 30 -59 43q-78 34 -133 45q-65 13 -109 68q-16 19 -28 43q-24 -41 -64 -76q-34 -30 -69 -37q-66 -13 -140 -43q-19 -5 -57 -45
q-43 -45 -43 -86q0 -14 4 -22l4 -13q-55 6 -79.5 -21.5t-26.5 -68.5q-1 -29 18 -55q15 62 82 67q45 4 78 -26l104 -94l115 98l-143 121l6 8q21 29 33 37q27 24 63 24q52 0 94 47l17 19l18 -16q43 -38 94 -46q57 -3 88 -81l2 -5l-346 -303q-141 -123 -178 -172
q-75 -98 -76 -221q-2 -143 115 -242q103 -88 226 -88q18 0 36 2q207 20 283 230l12 33l-37 36l-12 -32q-27 -73 -88 -120t-137 -48q-102 -2 -166 82q-58 75 -58 180q0 73 50 143q37 51 139 135z" />
    <glyph glyph-name="afii62802" unicode="&#x639;" horiz-adv-x="909" arabic-form="initial" 
d="M-23 201h863v180h-279l-29 12q-78 32 -133 90q-61 64 -61 129q0 33 18 64q38 67 123 67q92 0 150 -73q29 41 22 108q-4 41 -45 70q31 24 53 72q20 43 21 90q2 67 -45 129q7 -50 -4 -86q-20 -69 -137 -90q-49 -6 -150 -21q-184 -79 -186 -254q-1 -88 50 -170.5t130 -126.5
l18 -10h-379v-180z" />
    <glyph glyph-name="afii62803" unicode="&#x639;" horiz-adv-x="1061" arabic-form="medial" 
d="M-16 201h491l86 84l94 -84h412v180h-416l195 166q28 24 78 24q60 0 82 -65q18 21 18 57q0 51 -39 80q-17 17 -67 8l6 13q6 13 6 28q0 37 -48 85q-31 31 -89 55q-50 19 -99 38q-40 16 -78 45q-34 26 -57 97q-24 -56 -67 -97q-39 -38 -70 -49q-83 -30 -139 -49
q-22 -7 -58 -45q-43 -45 -43 -86q0 -14 4 -22l4 -13q-102 13 -106 -90q-1 -29 18 -55q17 62 82 67q45 4 78 -26l105 -94l114 98l-143 121l6 8q46 61 96 61q55 0 95 47l16 19l18 -16q43 -38 95 -46q48 -3 88 -81l2 -5l-318 -278h-450z" />
    <glyph glyph-name="afii62807" unicode="&#x63a;" horiz-adv-x="1008" arabic-form="final" 
d="M606 1335l-114 115l-115 -115l115 -114zM496 301l106 -100h438v180h-426l179 166q26 24 77 24q62 0 82 -65q19 20 19 57q0 50 -39 80q-17 17 -68 8l6 13q7 15 7 28q0 35 -46 82q-29 30 -59 43q-78 34 -133 45q-65 13 -109 68q-16 19 -28 43q-24 -41 -64 -76
q-34 -30 -69 -37q-66 -13 -140 -43q-19 -5 -57 -45q-43 -45 -43 -86q0 -14 4 -22l4 -13q-55 6 -79.5 -21.5t-26.5 -68.5q-1 -29 18 -55q15 62 82 67q45 4 78 -26l104 -94l115 98l-143 121l6 8q21 29 33 37q27 24 63 24q52 0 94 47l17 19l18 -16q43 -38 94 -46q57 -3 88 -81
l2 -5l-346 -303q-141 -123 -178 -172q-75 -98 -76 -221q-2 -143 115 -242q103 -88 226 -88q18 0 36 2q207 20 283 230l12 33l-37 36l-12 -32q-27 -73 -88 -120t-137 -48q-102 -2 -166 82q-58 75 -58 180q0 73 50 143q37 51 139 135z" />
    <glyph glyph-name="afii62805" unicode="&#x63a;" horiz-adv-x="909" arabic-form="initial" 
d="M588 1280l-137 139l-138 -139l138 -137zM0 201h840v180h-279l-29 12q-78 32 -133 90q-61 64 -61 129q0 33 18 64q38 67 123 67q92 0 150 -73q29 41 22 108q-4 41 -45 70q31 24 53 72q20 43 21 90q2 67 -45 129q7 -50 -4 -86q-20 -69 -137 -90q-49 -6 -150 -21
q-184 -79 -186 -254q-1 -88 50 -170.5t130 -126.5l18 -10h-372z" />
    <glyph glyph-name="afii62806" unicode="&#x63a;" horiz-adv-x="1067" arabic-form="medial" 
d="M610 1335l-114 115l-115 -115l115 -114zM-14 201h430l110 102l115 -102h426v180h-416l195 166q28 24 78 24q60 0 82 -65q18 21 18 57q0 51 -39 80q-17 17 -67 8l6 13q6 13 6 28q0 34 -37 74q-32 35 -68 51q-78 34 -133 45q-65 13 -109 68q-16 19 -28 43q-22 -40 -63 -76
q-34 -30 -70 -37q-64 -13 -139 -43q-21 -5 -58 -45q-43 -45 -43 -86q0 -14 4 -22l4 -13q-102 12 -106 -90q-1 -29 18 -55q17 62 82 67q45 4 78 -26l105 -94l114 98l-143 121l6 8q46 61 96 61q55 0 95 47l16 19l18 -16q43 -38 95 -46q48 -3 88 -81l2 -5l-318 -278h-452z" />
    <glyph glyph-name="afii62810" unicode="&#x641;" horiz-adv-x="1434" arabic-form="final" 
d="M1241 631v217q-9 1 -31 4q-53 0 -69 -29q-31 -56 -13 -100q-55 3 -73 -43q-3 -12 -3 -24q0 -13 3 -25h186zM999 1237l-122 125l-125 -125l125 -125zM1403 381h49v-180h-59v-41q0 -58 -47.5 -107.5t-106.5 -58.5q-35 -6 -61 -51l-13 -23l-12 23q-23 45 -76 49
q-170 14 -170 194v15h-876q75 41 141 102q108 99 168 225l20 -147h697v-152q-6 -41 24 -77q27 -33 74 -31q38 1 64 35q20 26 20 71v250h-358v125q0 98 10 131q5 16 31 54.5t90 54.5l8 2q12 102 80 151q18 13 88 15h96q50 1 90 22l29 15v-666z" />
    <glyph glyph-name="afii62808" unicode="&#x641;" horiz-adv-x="811" arabic-form="initial" 
d="M446 1237l-122 125l-125 -125l125 -125zM-31 381h588v96h-369v154q0 195 138 207q12 107 82 157q19 13 75 15h82q93 0 144 30l12 7v-846h-752v180zM549 866q-58 0 -83.5 -40t-10.5 -95q-64 6 -84 -51q-6 -25 2 -53h176v239z" />
    <glyph glyph-name="afii62809" unicode="&#x641;" horiz-adv-x="858" arabic-form="medial" 
d="M-20 201l456 -2l84 82l82 -80h272v180h-262l127 158q44 54 45 143q2 125 -90.5 210t-218.5 85q-25 0 -45 -2q-119 -12 -194 -107q-65 -82 -66 -188q-2 -143 100 -207l35 -22l96 110l-24 17q-45 32 -47 92q-2 59 43 97q40 35 100 42q66 7 110 -32.5t46 -92.5
q1 -32 -19 -66l-6 -10l-188 -227h-434zM508 1393l-125 -127l125 -127l125 127z" />
    <glyph glyph-name="afii62813" unicode="&#x642;" horiz-adv-x="1061" arabic-form="final" 
d="M635 381q-13 52 11.5 92.5t78.5 40.5q11 0 25 -2q-14 15 -17 51q0 41 27 64q8 7 37 10q23 0 41 8l18 8v-272h-221zM317 539q-1 41 -22 114.5t-21 98.5q0 15 11 51l10 33l-23 -5q-73 -16 -98 -55q-19 -30 -19 -61q0 -28 15 -60q-50 0 -80.5 -35t-30.5 -85q0 -60 35 -107
l6 -8v6q0 33 24.5 63t57.5 33q51 0 64 -61q9 -42 -56 -207q-13 -52 -14 -90q-2 -160 146 -275q130 -100 278 -94q203 9 326 142q102 111 102 251v13h47v180h-41v500l-22 -11q-43 -21 -171 -31q-122 -9 -143 -24q-57 -39 -59 -135q-1 -32 4 -62h-20q-54 0 -84 -25
q-19 -16 -52 -71l-6 -10q-22 -58 -22 -154v-157h395l-2 -19q-11 -104 -100 -169q-81 -58 -191 -62q-118 -4 -213 59q-104 69 -104 187q0 59 37 179q37 117 36 163zM647 1090l-115 116l115 115l232 -231l112 116l-112 115z" />
    <glyph glyph-name="afii62811" unicode="&#x642;" horiz-adv-x="811" arabic-form="initial" 
d="M225 1163l-114 117l114 115l232 -232l112 117l-112 115zM-31 381h588v96h-369v154q0 195 138 207q12 107 82 157q19 13 75 15h82q93 0 144 30l12 7v-846h-752v180zM549 866q-58 0 -83.5 -40t-10.5 -95q-64 6 -84 -51q-6 -25 2 -53h176v239z" />
    <glyph glyph-name="afii62812" unicode="&#x642;" horiz-adv-x="858" arabic-form="medial" 
d="M311 1153l-125 129l125 127l256 -256l123 129l-123 127zM-20 201l456 -2l84 82l82 -80h272v180h-262l127 158q44 54 45 143q2 125 -90.5 210t-218.5 85q-25 0 -45 -2q-119 -12 -194 -107q-65 -82 -66 -188q-2 -143 100 -207l35 -22l96 110l-24 17q-45 32 -47 92
q-2 59 43 97q40 35 100 42q66 7 110 -32.5t46 -92.5q1 -32 -19 -66l-6 -10l-188 -227h-434z" />
    <glyph glyph-name="afii62816" unicode="&#x643;" horiz-adv-x="1458" arabic-form="final" 
d="M31 201h1442v180h-54v1094l-260 -246l90 -58v-790h-866l-64 102zM1014 758h-158q-46 0 -86 39q-37 36 -39 75q-1 20 17 37q15 14 38 17q29 0 72 -39q12 18 12 61q0 21 -24 39q16 11 31 37q6 16 10 51q0 43 -25 74q0 -34 -4 -47q-12 -39 -84 -53q-28 -4 -88 -15
q-86 -42 -86 -129q0 -52 34.5 -96t96.5 -59l8 -2q-77 -20 -118 -91q-39 -67 -21 -147q33 135 215 135h199v113z" />
    <glyph glyph-name="afii57410" unicode="&#x643;" horiz-adv-x="1440" arabic-form="initial" 
d="M-12 381h1071v-178q0 -49 32 -81t80 -28q36 3 60 35t24 72v303h-1122l643 852v-361h-88l-231 -311h950l2 -551q0 -61 -59 -129q-29 -34 -97 -47t-86 -47l-10 -19l-10 17q-21 36 -82 56q-70 23 -84 36q-74 66 -74 145v56h-919v180z" />
    <glyph glyph-name="afii62815" unicode="&#x643;" horiz-adv-x="1440" arabic-form="medial" 
d="M-12 381h1071v-178q0 -49 32 -81t80 -28q36 3 60 35t24 72v303h-1122l643 852v-361h-88l-231 -311h950v-303h43v-180h-41v-68q0 -61 -59 -129q-29 -34 -97 -47t-86 -47l-10 -19l-10 17q-21 36 -82 56q-70 23 -84 36q-74 66 -74 145v56h-919v180z" />
    <glyph glyph-name="afii62819" unicode="&#x644;" horiz-adv-x="934" arabic-form="final" 
d="M872 201l-4 -25q-61 -379 -374 -387q-155 -4 -279 96q-131 106 -133 275q-1 81 39 176l2 -64q4 -118 101 -205t220 -90q36 -1 76 11q123 36 168 151q29 74 29 228v727l-99 28l259 258l2 -999h96v-180h-103z" />
    <glyph glyph-name="afii62817" unicode="&#x644;" horiz-adv-x="424" arabic-form="initial" 
d="M-39 201h397v1278l-243 -242l82 -49v-807h-228z" />
    <glyph glyph-name="afii62818" unicode="&#x644;" horiz-adv-x="424" arabic-form="medial" 
d="M-16 201h450v180h-63v1098l-244 -246l72 -53v-799h-217z" />
    <glyph glyph-name="afii62822" unicode="&#x645;" horiz-adv-x="750" arabic-form="final" 
d="M375 381l-4 29q-10 74 32 135q31 44 148 73l37 9v-246h-213zM762 201v180h-25v473l-41 -29q-46 -32 -137 -49q-106 -19 -147 -37q-86 -37 -158 -133q-37 -49 -39 -178q-1 -36 4 -55v-172q0 -91 -69 -186q-64 -88 -150 -134q55 -15 104 -16q86 -2 146 53q70 64 96 117
q0 -9 29 121l10 45h377z" />
    <glyph glyph-name="afii62820" unicode="&#x645;" horiz-adv-x="793" arabic-form="initial" 
d="M-27 201h721v653l-41 -29q-46 -32 -137 -49q-106 -19 -147 -37q-87 -37 -158 -133q-20 -26 -33 -96q-12 -64 -6 -129h-199v-180zM332 381l-4 29q-10 74 32 135q31 44 148 73l37 9v-246h-213z" />
    <glyph glyph-name="afii62821" unicode="&#x645;" horiz-adv-x="770" arabic-form="medial" 
d="M414 418q54 0 88 -38q31 -35 33 -91q2 -48 -31 -86q-29 -33 -86 -35q-55 -1 -88 35t-33 92q0 53 32.5 88t84.5 35zM-25 201h177q24 -93 104 -150q75 -53 178 -49q192 8 248 199h111v180h-115q-25 88 -94.5 141.5t-161.5 55.5q-95 2 -172 -52q-73 -52 -100 -145h-175v-180
z" />
    <glyph glyph-name="afii62825" unicode="&#x646;" horiz-adv-x="952" arabic-form="final" 
d="M31 262l8 -74q33 -304 307 -381q64 -18 133 -18q255 0 367 234q39 81 47 159l2 19h68v180h-60v4q0 25 -18 84q-38 125 -105 219q-49 70 -159 174l-41 39q20 -57 22 -113q1 -46 -16 -98q-23 -68 -74 -119l55 -20q81 -30 127 -136q40 -94 31 -188q-11 -121 -113 -194
q-95 -68 -221 -70q-237 -3 -340 250zM362 434q57 1 97 -43q37 -42 37 -98q0 -54 -34 -93t-95 -40q-63 -1 -99 41q-33 38 -35 98q-2 53 32.5 93.5t96.5 41.5z" />
    <glyph glyph-name="afii62823" unicode="&#x646;" horiz-adv-x="567" arabic-form="initial" 
d="M340 1231l-133 135l-133 -135l133 -133zM-16 201h524v714l-242 -239l70 -49v-246h-350z" />
    <glyph glyph-name="afii62824" unicode="&#x646;" horiz-adv-x="520" arabic-form="medial" 
d="M389 1235l-137 139l-137 -139l137 -137zM-12 201h532v180h-80v430l-243 -242l73 -49v-139h-284z" />
    <glyph glyph-name="afii62828" unicode="&#x647;" horiz-adv-x="719" arabic-form="final" 
d="M231 381v78q0 66 50 116t118 50q50 0 95 -29v-215h-263zM737 201v180h-63v745l-244 -174l64 -63v-131q-62 21 -121 22q-153 2 -250 -137q-60 -86 -60 -223v-219h674z" />
    <glyph glyph-name="afii62827" unicode="&#x6be;" horiz-adv-x="1313" arabic-form="final" 
d="M375 201q17 -101 123 -176q52 -37 118 -43v219h-241zM616 655q-60 0 -122 -34q-135 -75 -138 -240h260v274zM1065 381q6 190 -166 254q-52 19 -119 16v-270h285zM-16 381h221q6 172 128 297q119 122 292 141v78l-56 78l215 131v-281q71 0 160 -34q270 -103 289 -410h86
v-180h-539v-394q-18 -1 -57 -4q-164 0 -328 111q-141 95 -190 287h-221v180z" />
    <glyph glyph-name="afii62829" unicode="&#x648;" horiz-adv-x="662" arabic-form="final" 
d="M231 381v16q0 32 11 49q24 52 90 54q12 0 33 -6q-25 21 -27 61q-1 31 20 55q13 11 41 17q38 3 50 8l20 8v-262h-238zM629 164v37h43v180h-43v504l-33 -23q-55 -38 -168 -47q-116 -9 -135 -27q-45 -43 -45 -136q0 -20 2 -42h-14q-63 0 -95 -25q-27 -20 -57 -79
q-16 -50 -16 -148v-157h401v-31q0 -67 -37 -139q-33 -64 -118 -106q-78 -38 -156 -40q-41 -1 -84 15l-49 18l30 -22q104 -76 221 -78q88 -1 175 47q178 99 178 299z" />
    <glyph glyph-name="afii62830" unicode="&#x649;" horiz-adv-x="811" arabic-form="final" 
d="M756 709l-58 -41l-247 241l-189 -282q-36 -53 -37 -88q-1 -38 25 -82l295 -320q18 -30 18 -65q0 -53 -47 -107q-64 -74 -184 -76q-76 -1 -142 41q-73 47 -73 121q0 101 71 101q32 0 48 -48q23 54 2 95q-31 47 -70 59q15 27 12 61q-3 37 -37 62t-71 27q-15 1 -27 -5
q45 -63 47 -116q1 -34 -21.5 -103t-21.5 -108q2 -130 116 -212q105 -75 238 -69q119 5 222 99q98 89 98 202q0 50 -18 90l-5 11l-270 295q-5 5 -16 22q-5 15 -5 28q0 19 11 38l53 73l283 -268v324z" />
    <glyph glyph-name="afii62833" unicode="&#x64a;" horiz-adv-x="936" arabic-form="final" 
d="M451 909l-189 -282q-36 -53 -37 -88q-1 -38 25 -82l295 -320q18 -30 18 -65q0 -53 -47 -107q-64 -74 -184 -76q-76 -1 -142 41q-73 47 -73 121q0 101 71 101q32 0 48 -48q23 54 2 95q-31 47 -70 59q15 27 12 61q-3 37 -37 62t-71 27q-15 1 -27 -5q45 -63 47 -116
q1 -34 -21.5 -103t-21.5 -108q2 -130 116 -212q105 -75 238 -69q119 5 222 99q98 89 98 202q0 50 -18 90l-5 11l-270 295q-5 5 -16 22q-5 15 -5 28q0 19 11 38l53 73l410 -452h61v180h-20zM334 -487l-109 110l109 109l219 -219l106 110l-106 109z" />
    <glyph glyph-name="afii62831" unicode="&#x64a;" horiz-adv-x="639" arabic-form="initial" 
d="M141 -296l-125 129l125 127l256 -256l123 129l-123 127zM-16 201h524v714l-242 -239l70 -49v-246h-350z" />
    <glyph glyph-name="afii62832" unicode="&#x64a;" horiz-adv-x="520" arabic-form="medial" 
d="M140 -179l-125 129l125 127l256 -256l123 129l-123 127zM-23 201h543v180h-82v426l-254 -256l80 -49v-121h-282z" />
    <glyph glyph-name="uni0676.fina" unicode="&#x676;" horiz-adv-x="666" 
d="M233 381q-6 41 7 72q23 54 92 57q14 1 24 -2q-26 26 -28 67q-2 40 25.5 67.5t70.5 29.5q24 1 43 -10v-281h-234zM616 166v35h66v180h-70v512l-155 -59q-24 -9 -86 -19q-50 -8 -78 -27q-55 -38 -55 -106q0 -28 12 -72h-14q-70 0 -95 -35q-22 -31 -49 -67q-24 -49 -24 -150
v-157h403v-31q0 -64 -39 -139q-33 -64 -118 -106q-78 -38 -156 -40q-41 -1 -84 15l-49 18l30 -22q109 -80 230 -82q88 -1 166 51q165 111 165 301zM530 1141h-145q-38 0 -78 37q-36 33 -39 69q0 43 54 43q38 0 67 -33q10 19 8 56q-1 13 -20 39q37 25 39 82q1 35 -27 65
q2 -10 2 -22q0 -11 -2 -23q-9 -36 -78 -51q-54 -4 -84 -10q-73 -37 -73 -105q0 -99 118 -158l4 -2q-57 -12 -95 -61.5t-38 -110.5q0 -20 7 -47q22 101 148 120q23 3 50 3h182v109z" />
    <glyph glyph-name="unifbda" unicode="&#x6c6;" horiz-adv-x="662" arabic-form="final" 
d="M231 381v16q0 32 11 49q24 52 90 54q12 0 33 -6q-25 21 -27 61q-1 31 20 55q13 11 41 17q38 3 50 8l20 8v-262h-238zM629 164v37h43v180h-43v504l-33 -23q-55 -38 -168 -47q-116 -9 -135 -27q-45 -43 -45 -136q0 -20 2 -42h-14q-63 0 -95 -25q-27 -20 -57 -79
q-16 -50 -16 -148v-157h401v-31q0 -67 -37 -139q-33 -64 -118 -106q-78 -38 -156 -40q-41 -1 -84 15l-49 18l30 -22q104 -76 221 -78q88 -1 175 47q178 99 178 299zM626 1489l-13 -31l-10 -28l-14 -43l-48 -160l-40 -150q-21 -78 -71 -78q-33 0 -41 7q-6 10 -24 62
q-8 26 -27 81q-13 29 -38 92l-100 265h100q17 -20 34 -63l41 -104l49 -131q9 21 36 96l39 121q18 57 33 81h93z" />
    <glyph glyph-name="FY1" unicode="&#x6cc;" horiz-adv-x="639" arabic-form="initial" 
d="M141 -296l-125 129l125 127l256 -256l123 129l-123 127zM-16 201h524v714l-242 -239l70 -49v-246h-350z" />
    <glyph glyph-name="FY2" unicode="&#x6cc;" horiz-adv-x="520" arabic-form="medial" 
d="M140 -179l-125 129l125 127l256 -256l123 129l-123 127zM-23 201h543v180h-82v426l-254 -256l80 -49v-121h-282z" />
    <glyph glyph-name=".notdef" horiz-adv-x="1536" 
d="M256 0v1280h1024v-1280h-1024zM288 32h960v1216h-960v-1216z" />
    <glyph glyph-name=".null" horiz-adv-x="0" 
 />
    <glyph glyph-name="nonmarkingreturn" horiz-adv-x="640" 
 />
    <glyph glyph-name="space" unicode=" " horiz-adv-x="640" 
 />
    <glyph glyph-name="exclam" unicode="!" horiz-adv-x="440" 
d="M242 1112q-29 -214 -38 -440q-5 -131 -9 -262q-8 -86 -42 -86q-4 0 -12 2q-9 4 -24 67q-19 79 -30 201q-15 159 -15 356q0 42 117 136q26 13 53 26zM264 121l-143 -121l-127 133l147 117z" />
    <glyph glyph-name="quotedbl" unicode="&#x22;" horiz-adv-x="457" 
d="M326 975q-18 49 -26 79q-27 93 -27 148q0 39 12 60.5t41 21.5t41 -21.5t12 -60.5q0 -58 -26 -148q-8 -30 -27 -79zM111 973q-18 49 -26 79q-27 93 -27 148q0 39 12 60.5t41 21.5t41 -21.5t12 -60.5q0 -58 -26 -148q-8 -30 -27 -79z" />
    <glyph glyph-name="numbersign" unicode="#" 
d="M103 -25l87 426h-169v149h199l74 363h-273v149h303l87 429h150l-87 -429h315l87 429h151l-87 -429h173v-149h-203l-75 -363h278v-149h-308l-87 -426h-150l86 426h-314l-87 -426h-150zM370 550h314l75 363h-315z" />
    <glyph glyph-name="dollar" unicode="$" 
d="M510 -211v180q-135 17 -219.5 60.5t-146 140.5t-71.5 237l181 34q21 -145 74 -213q76 -96 182 -107v573q-111 21 -227 86q-86 48 -132.5 133t-46.5 193q0 192 136 311q91 80 270 98v86h106v-86q157 -15 249 -92q118 -98 142 -269l-186 -28q-16 106 -66.5 162.5
t-138.5 74.5v-519q136 -34 180 -53q84 -37 137 -90t81.5 -126t28.5 -158q0 -187 -119 -312t-308 -134v-182h-106zM510 1365q-105 -16 -165.5 -84t-60.5 -161q0 -92 51.5 -154t174.5 -99v498zM616 121q105 13 173.5 91t68.5 193q0 98 -48.5 157.5t-193.5 106.5v-548z" />
    <glyph glyph-name="percent" unicode="%" horiz-adv-x="1821" 
d="M119 1114q0 157 79 267t229 110q138 0 228.5 -98.5t90.5 -289.5q0 -186 -91.5 -286.5t-225.5 -100.5q-133 0 -221.5 99t-88.5 299zM432 1367q-67 0 -111.5 -58t-44.5 -213q0 -141 45 -198.5t111 -57.5q68 0 112.5 58t44.5 212q0 142 -45 199.5t-112 57.5zM433 -54
l802 1545h146l-799 -1545h-149zM1067 344q0 158 79 267.5t230 109.5q138 0 228.5 -98.5t90.5 -289.5q0 -186 -91.5 -286.5t-226.5 -100.5q-133 0 -221.5 99.5t-88.5 298.5zM1381 597q-68 0 -112.5 -58t-44.5 -213q0 -140 45 -198t111 -58q69 0 113.5 58t44.5 212
q0 142 -45 199.5t-112 57.5z" />
    <glyph glyph-name="ampersand" unicode="&#x26;" horiz-adv-x="1366" 
d="M973 173q-89 -99 -194 -148.5t-227 -49.5q-225 0 -357 152q-107 124 -107 277q0 136 87.5 245.5t261.5 192.5q-99 114 -132 185t-33 137q0 132 103.5 229.5t260.5 97.5q150 0 245.5 -92t95.5 -221q0 -209 -277 -357l263 -335q45 88 70 204l187 -40q-48 -192 -130 -316
q101 -134 229 -225l-121 -143q-109 70 -225 207zM607 937q117 69 151.5 121t34.5 115q0 75 -47.5 122.5t-118.5 47.5q-73 0 -121.5 -47t-48.5 -115q0 -34 17.5 -71.5t52.5 -79.5zM860 315l-330 409q-146 -87 -197 -161.5t-51 -147.5q0 -89 71 -185t201 -96q81 0 167.5 50.5
t138.5 130.5z" />
    <glyph glyph-name="quotesingle" unicode="'" horiz-adv-x="391" 
d="M136 947l-46 274v245h205v-245l-48 -274h-111z" />
    <glyph glyph-name="parenleft" unicode="(" horiz-adv-x="709" 
d="M500 -20l-72 -101q-78 72 -142 228q-78 191 -78 394q0 154 45 294q51 160 161 303l35 -35q-45 -58 -86 -180q-55 -163 -55 -333q0 -147 41 -280q48 -155 151 -290z" />
    <glyph glyph-name="parenright" unicode=")" horiz-adv-x="702" 
d="M295 -121l-35 37q62 86 98.5 223.5t36.5 287.5q0 164 -44 306q-49 157 -146 266l76 95q105 -109 160 -266.5t55 -333.5q0 -170 -51 -330t-150 -285z" />
    <glyph glyph-name="asterisk" unicode="*" horiz-adv-x="1176" 
d="M602 801q3 -17 3 -33q0 -57 -23.5 -119.5t-34.5 -64.5q-10 -5 -38 62q-31 75 -31 132q0 15 2 32t19.5 31.5t41.5 14.5q49 0 61 -55zM451 547q-11 -5 -101 36q-98 44 -121 79q-9 14 -9 30q0 29 24.5 52.5t61.5 23.5q13 0 20 -2q30 -8 82.5 -109.5t42.5 -109.5zM870 645
q-43 -29 -129 -66.5t-94 -31.5q16 39 32 79q45 81 83 124q13 12 34 12q31 0 61 -27t30 -56q0 -20 -17 -34zM551 530q34 0 54 -21t20 -48t-21 -45.5t-63 -18.5q-32 0 -48 18t-16 44q0 28 20.5 49.5t53.5 21.5zM414 459q3 -11 -89 -36.5t-141 -25.5q-27 4 -42.5 23.5
t-15.5 45.5q0 23 12.5 40t37.5 22q18 2 28 2q60 0 139 -32q71 -29 71 -39zM928 389q-11 -3 -24 -3q-50 0 -132 30t-82 41q0 14 79 41t132 27q15 0 27 -3q25 -4 39 -21.5t14 -39.5q0 -50 -53 -72zM451 377q17 -11 -41 -106q-33 -53 -68 -81q-17 -14 -41 -14q-30 0 -56 19
t-26 46q0 47 112 97q104 46 120 39zM872 221q0 -23 -23.5 -42.5t-52.5 -19.5q-22 0 -40 15q-46 36 -84.5 113.5t-28.5 85.5q12 12 117 -41q112 -57 112 -111zM616 135q0 -27 -22 -43.5t-50 -16.5q-26 0 -44.5 13.5t-21.5 34t-3 30.5q0 50 29 120q25 61 37 67
q13 2 46.5 -81.5t28.5 -123.5z" />
    <glyph glyph-name="plus" unicode="+" horiz-adv-x="1483" 
d="M1394 492h-544v-546h-190v546h-547v189h547v546h190v-546h544v-189z" />
    <glyph glyph-name="comma" unicode="," horiz-adv-x="569" 
d="M182 0v205h205v-205q0 -113 -40 -182.5t-127 -107.5l-50 77q57 25 84 73.5t30 139.5h-102z" />
    <glyph glyph-name="hyphen" unicode="-" horiz-adv-x="682" 
d="M65 440v181h553v-181h-553z" />
    <glyph glyph-name="period" unicode="." horiz-adv-x="580" 
d="M186 0v232h232v-232h-232z" />
    <glyph glyph-name="slash" unicode="/" horiz-adv-x="569" 
d="M0 -25l425 1516h144l-424 -1516h-145z" />
    <glyph glyph-name="zero" unicode="0" 
d="M85 723q0 260 53.5 418.5t159 244.5t265.5 86q118 0 207 -47.5t147 -137t91 -218t33 -346.5q0 -258 -53 -416.5t-158.5 -245t-266.5 -86.5q-212 0 -333 152q-145 183 -145 596zM270 723q0 -361 84.5 -480.5t208.5 -119.5t208.5 120t84.5 480q0 362 -84.5 481t-210.5 119
q-124 0 -198 -105q-93 -134 -93 -495z" />
    <glyph glyph-name="one" unicode="1" 
d="M763 0h-180v1147q-65 -62 -170.5 -124t-189.5 -93v174q151 71 264 172t160 196h116v-1472z" />
    <glyph glyph-name="two" unicode="2" 
d="M1031 173v-173h-969q-2 65 21 125q37 99 118.5 195t235.5 222q239 196 323 310.5t84 216.5q0 107 -76.5 180.5t-199.5 73.5q-130 0 -208 -78t-79 -216l-185 19q19 207 143 315.5t333 108.5q211 0 334 -117t123 -290q0 -88 -36 -173t-119.5 -179t-277.5 -258
q-162 -136 -208 -184.5t-76 -97.5h719z" />
    <glyph glyph-name="three" unicode="3" 
d="M86 387l180 24q31 -153 105.5 -220.5t181.5 -67.5q127 0 214.5 88t87.5 218q0 124 -81 204.5t-206 80.5q-51 0 -127 -20l20 158q18 -2 29 -2q115 0 207 60t92 185q0 99 -67 164t-173 65q-105 0 -175 -66t-90 -198l-180 32q33 181 150 280.5t291 99.5q120 0 221 -51.5
t154.5 -140.5t53.5 -189q0 -95 -51 -173t-151 -124q130 -30 202 -124.5t72 -236.5q0 -192 -140 -325.5t-354 -133.5q-193 0 -320.5 115t-145.5 298z" />
    <glyph glyph-name="four" unicode="4" 
d="M662 0v351h-636v165l669 950h147v-950h198v-165h-198v-351h-180zM662 516v661l-459 -661h459z" />
    <glyph glyph-name="five" unicode="5" 
d="M85 384l189 16q21 -138 97.5 -207.5t184.5 -69.5q130 0 220 98t90 260q0 154 -86.5 243t-226.5 89q-87 0 -157 -39.5t-110 -102.5l-169 22l142 753h729v-172h-585l-79 -394q132 92 277 92q192 0 324 -133t132 -342q0 -199 -116 -344q-141 -178 -385 -178
q-200 0 -326.5 112t-144.5 297z" />
    <glyph glyph-name="six" unicode="6" 
d="M1019 1107l-179 -14q-24 106 -68 154q-73 77 -180 77q-86 0 -151 -48q-85 -62 -134 -181t-51 -339q65 99 159 147t197 48q180 0 306.5 -132.5t126.5 -342.5q0 -138 -59.5 -256.5t-163.5 -181.5t-236 -63q-225 0 -367 165.5t-142 545.5q0 425 157 618q137 168 369 168
q173 0 283.5 -97t132.5 -268zM284 475q0 -93 39.5 -178t110.5 -129.5t149 -44.5q114 0 196 92t82 250q0 152 -81 239.5t-204 87.5q-122 0 -207 -87.5t-85 -229.5z" />
    <glyph glyph-name="seven" unicode="7" 
d="M97 1274v173h949v-140q-140 -149 -277.5 -396t-212.5 -508q-54 -184 -69 -403h-185q3 173 68 418t186.5 472.5t258.5 383.5h-718z" />
    <glyph glyph-name="eight" unicode="8" 
d="M362 795q-112 41 -166 117t-54 182q0 160 115 269t306 109q192 0 309 -111.5t117 -271.5q0 -102 -53.5 -177.5t-162.5 -116.5q135 -44 205.5 -142t70.5 -234q0 -188 -133 -316t-350 -128t-350 128.5t-133 320.5q0 143 72.5 239.5t206.5 131.5zM326 1100q0 -104 67 -170
t174 -66q104 0 170.5 65.5t66.5 160.5q0 99 -68.5 166.5t-170.5 67.5q-103 0 -171 -66t-68 -158zM268 423q0 -77 36.5 -149t108.5 -111.5t155 -39.5q129 0 213 83t84 211q0 130 -86.5 215t-216.5 85q-127 0 -210.5 -84t-83.5 -210z" />
    <glyph glyph-name="nine" unicode="9" 
d="M112 339l173 16q22 -122 84 -177t159 -55q83 0 145.5 38t102.5 101.5t67 171.5t27 220q0 12 -1 36q-54 -86 -147.5 -139.5t-202.5 -53.5q-182 0 -308 132t-126 348q0 223 131.5 359t329.5 136q143 0 261.5 -77t180 -219.5t61.5 -412.5q0 -281 -61 -447.5t-181.5 -253.5
t-282.5 -87q-172 0 -281 95.5t-131 268.5zM849 986q0 155 -82.5 246t-198.5 91q-120 0 -209 -98t-89 -254q0 -140 84.5 -227.5t208.5 -87.5q125 0 205.5 87.5t80.5 242.5z" />
    <glyph glyph-name="colon" unicode=":" horiz-adv-x="415" 
d="M297 219q0 -36 -26.5 -63t-62.5 -27q-37 0 -64 27t-27 63t27 63t63 27q37 0 63.5 -27t26.5 -63zM297 499q0 -36 -26.5 -63t-62.5 -27q-37 0 -64 27t-27 63t27 63t63 27q37 0 63.5 -27t26.5 -63z" />
    <glyph glyph-name="semicolon" unicode=";" horiz-adv-x="569" 
d="M182 857v205h205v-205h-205zM182 0v205h205v-205q0 -113 -40 -182.5t-127 -107.5l-50 77q57 25 84 73.5t30 139.5h-102z" />
    <glyph glyph-name="less" unicode="&#x3c;" horiz-adv-x="1196" 
d="M112 641v168l971 410v-179l-770 -316l770 -319v-179z" />
    <glyph glyph-name="equal" unicode="=" horiz-adv-x="1196" 
d="M1082 862h-968v168h968v-168zM1082 417h-968v168h968v-168z" />
    <glyph glyph-name="greater" unicode="&#x3e;" horiz-adv-x="1196" 
d="M1083 641l-971 -415v179l769 319l-769 316v179l971 -410v-168z" />
    <glyph glyph-name="question" unicode="?" 
d="M472 361q-1 36 -1 54q0 106 30 183q22 58 71 117q36 43 129.5 125.5t121.5 131.5t28 107q0 105 -82 184.5t-201 79.5q-115 0 -192 -72t-101 -225l-185 22q25 205 148.5 314t326.5 109q215 0 343 -117t128 -283q0 -96 -45 -177t-176 -197q-88 -78 -115 -115t-40 -85
t-15 -156h-173zM461 0v205h205v-205h-205z" />
    <glyph glyph-name="at" unicode="@" horiz-adv-x="2079" 
d="M1161 163q-65 -75 -145.5 -120.5t-161.5 -45.5q-89 0 -173 52t-136.5 160t-52.5 237q0 159 81.5 318.5t202.5 239.5t235 80q87 0 166 -45.5t136 -138.5l34 155h179l-144 -671q-30 -140 -30 -155q0 -27 20.5 -46.5t49.5 -19.5q53 0 139 61q114 80 180.5 214.5t66.5 277.5
q0 167 -85.5 312t-255 232t-374.5 87q-234 0 -427.5 -109.5t-300 -314t-106.5 -438.5q0 -245 106.5 -422t308 -261.5t446.5 -84.5q262 0 439 88t265 214h181q-51 -105 -175 -214t-295 -172.5t-412 -63.5q-222 0 -409.5 57t-319.5 171.5t-199 263.5q-84 189 -84 408
q0 244 100 465q122 271 346.5 415t544.5 144q248 0 445.5 -101.5t311.5 -302.5q97 -173 97 -376q0 -290 -204 -515q-182 -202 -398 -202q-69 0 -111.5 21t-62.5 60q-13 25 -19 86zM677 434q0 -137 65 -213t149 -76q56 0 118 33.5t118.5 99.5t92.5 167.5t36 203.5
q0 136 -67.5 211t-164.5 75q-64 0 -120.5 -32.5t-109.5 -104.5t-85 -175t-32 -189z" />
    <glyph glyph-name="A" unicode="A" horiz-adv-x="1366" 
d="M-3 0l563 1466h209l600 -1466h-221l-171 444h-613l-161 -444h-206zM420 602h497l-153 406q-70 185 -104 304q-28 -141 -79 -280z" />
    <glyph glyph-name="B" unicode="B" horiz-adv-x="1366" 
d="M150 0v1466h550q168 0 269.5 -44.5t159 -137t57.5 -193.5q0 -94 -51 -177t-154 -134q133 -39 204.5 -133t71.5 -222q0 -103 -43.5 -191.5t-107.5 -136.5t-160.5 -72.5t-236.5 -24.5h-559zM344 850h317q129 0 185 17q74 22 111.5 73t37.5 128q0 73 -35 128.5t-100 76
t-223 20.5h-293v-443zM344 173h365q94 0 132 7q67 12 112 40t74 81.5t29 123.5q0 82 -42 142.5t-116.5 85t-214.5 24.5h-339v-504z" />
    <glyph glyph-name="C" unicode="C" horiz-adv-x="1479" 
d="M1204 514l194 -49q-61 -239 -219.5 -364.5t-387.5 -125.5q-237 0 -385.5 96.5t-226 279.5t-77.5 393q0 229 87.5 399.5t249 259t355.5 88.5q220 0 370 -112t209 -315l-191 -45q-51 160 -148 233t-244 73q-169 0 -282.5 -81t-159.5 -217.5t-46 -281.5q0 -187 54.5 -326.5
t169.5 -208.5t249 -69q163 0 276 94t153 279z" />
    <glyph glyph-name="D" unicode="D" horiz-adv-x="1479" 
d="M158 0v1466h505q171 0 261 -21q126 -29 215 -105q116 -98 173.5 -250.5t57.5 -348.5q0 -167 -39 -296t-100 -213.5t-133.5 -133t-175 -73.5t-235.5 -25h-529zM352 173h313q145 0 227.5 27t131.5 76q69 69 107.5 185.5t38.5 282.5q0 230 -75.5 353.5t-183.5 165.5
q-78 30 -251 30h-308v-1120z" />
    <glyph glyph-name="E" unicode="E" horiz-adv-x="1366" 
d="M162 0v1466h1060v-173h-866v-449h811v-172h-811v-499h900v-173h-1094z" />
    <glyph glyph-name="F" unicode="F" horiz-adv-x="1251" 
d="M168 0v1466h989v-173h-795v-454h688v-173h-688v-666h-194z" />
    <glyph glyph-name="G" unicode="G" horiz-adv-x="1593" 
d="M844 575v172l621 1v-544q-143 -114 -295 -171.5t-312 -57.5q-216 0 -392.5 92.5t-266.5 267.5t-90 391q0 214 89.5 399.5t257.5 275.5t387 90q159 0 287.5 -51.5t201.5 -143.5t111 -240l-175 -48q-33 112 -82 176t-140 102.5t-202 38.5q-133 0 -230 -40.5t-156.5 -106.5
t-92.5 -145q-56 -136 -56 -295q0 -196 67.5 -328t196.5 -196t274 -64q126 0 246 48.5t182 103.5v273h-431z" />
    <glyph glyph-name="H" unicode="H" horiz-adv-x="1479" 
d="M164 0v1466h194v-602h762v602h194v-1466h-194v691h-762v-691h-194z" />
    <glyph glyph-name="I" unicode="I" horiz-adv-x="569" 
d="M191 0v1466h194v-1466h-194z" />
    <glyph glyph-name="J" unicode="J" horiz-adv-x="1024" 
d="M59 416l175 24q7 -168 63 -230t155 -62q73 0 126 33.5t73 91t20 183.5v1010h194v-999q0 -184 -44.5 -285t-141 -154t-226.5 -53q-193 0 -295.5 111t-98.5 330z" />
    <glyph glyph-name="K" unicode="K" horiz-adv-x="1366" 
d="M150 0v1466h194v-727l728 727h263l-615 -594l642 -872h-256l-522 742l-240 -234v-508h-194z" />
    <glyph glyph-name="L" unicode="L" 
d="M150 0v1466h194v-1293h722v-173h-916z" />
    <glyph glyph-name="M" unicode="M" horiz-adv-x="1706" 
d="M152 0v1466h292l347 -1038q48 -145 70 -217q25 80 78 235l351 1020h261v-1466h-187v1227l-426 -1227h-175l-424 1248v-1248h-187z" />
    <glyph glyph-name="N" unicode="N" horiz-adv-x="1479" 
d="M156 0v1466h199l770 -1151v1151h186v-1466h-199l-770 1152v-1152h-186z" />
    <glyph glyph-name="O" unicode="O" horiz-adv-x="1593" 
d="M99 714q0 365 196 571.5t506 206.5q203 0 366 -97t248.5 -270.5t85.5 -393.5q0 -223 -90 -399t-255 -266.5t-356 -90.5q-207 0 -370 100t-247 273t-84 366zM299 711q0 -265 142.5 -417.5t357.5 -152.5q219 0 360.5 154t141.5 437q0 179 -60.5 312.5t-177 207t-261.5 73.5
q-206 0 -354.5 -141.5t-148.5 -472.5z" />
    <glyph glyph-name="P" unicode="P" horiz-adv-x="1366" 
d="M158 0v1466h553q146 0 223 -14q108 -18 181 -68.5t117.5 -141.5t44.5 -200q0 -187 -119 -316.5t-430 -129.5h-376v-596h-194zM352 769h379q188 0 267 70t79 197q0 92 -46.5 157.5t-122.5 86.5q-49 13 -181 13h-375v-524z" />
    <glyph glyph-name="Q" unicode="Q" horiz-adv-x="1593" 
d="M1269 157q135 -93 249 -136l-57 -135q-158 57 -315 180q-163 -91 -360 -91q-199 0 -361 96t-249.5 270t-87.5 392q0 217 88 395t250.5 271t363.5 93q203 0 366 -96.5t248.5 -270t85.5 -391.5q0 -181 -55 -325.5t-166 -251.5zM842 405q168 -47 277 -140q171 156 171 469
q0 178 -60.5 311t-177 206.5t-261.5 73.5q-217 0 -360 -148.5t-143 -443.5q0 -286 141.5 -439t361.5 -153q104 0 196 39q-91 59 -192 84z" />
    <glyph glyph-name="R" unicode="R" horiz-adv-x="1479" 
d="M161 0v1466h650q196 0 298 -39.5t163 -139.5t61 -221q0 -156 -101 -263t-312 -136q77 -37 117 -73q85 -78 161 -195l255 -399h-244l-194 305q-85 132 -140 202t-98.5 98t-88.5 39q-33 7 -108 7h-225v-651h-194zM355 819h417q133 0 208 27.5t114 88t39 131.5
q0 104 -75.5 171t-238.5 67h-464v-485z" />
    <glyph glyph-name="S" unicode="S" horiz-adv-x="1366" 
d="M92 471l183 16q13 -110 60.5 -180.5t147.5 -114t225 -43.5q111 0 196 33t126.5 90.5t41.5 125.5q0 69 -40 120.5t-132 86.5q-59 23 -261 71.5t-283 91.5q-105 55 -156.5 136.5t-51.5 182.5q0 111 63 207.5t184 146.5t269 50q163 0 287.5 -52.5t191.5 -154.5t72 -231
l-186 -14q-15 139 -101.5 210t-255.5 71q-176 0 -256.5 -64.5t-80.5 -155.5q0 -79 57 -130q56 -51 292.5 -104.5t324.5 -93.5q128 -59 189 -149.5t61 -208.5q0 -117 -67 -220.5t-192.5 -161t-282.5 -57.5q-199 0 -333.5 58t-211 174.5t-80.5 263.5z" />
    <glyph glyph-name="T" unicode="T" horiz-adv-x="1251" 
d="M531 0v1293h-483v173h1162v-173h-485v-1293h-194z" />
    <glyph glyph-name="U" unicode="U" horiz-adv-x="1479" 
d="M1120 1466h194v-847q0 -221 -50 -351t-180.5 -211.5t-342.5 -81.5q-206 0 -337 71t-187 205.5t-56 367.5v847h194v-846q0 -191 35.5 -281.5t122 -139.5t211.5 -49q214 0 305 97t91 373v846z" />
    <glyph glyph-name="V" unicode="V" horiz-adv-x="1366" 
d="M577 0l-568 1466h210l381 -1065q46 -128 77 -240q34 120 79 240l396 1065h198l-574 -1466h-199z" />
    <glyph glyph-name="W" unicode="W" horiz-adv-x="1933" 
d="M414 0l-389 1466h199l223 -961q36 -151 62 -300q56 235 66 271l279 990h234l210 -742q79 -276 114 -519q28 139 73 319l230 942h195l-402 -1466h-187l-309 1117q-39 140 -46 172q-23 -101 -43 -172l-311 -1117h-198z" />
    <glyph glyph-name="X" unicode="X" horiz-adv-x="1366" 
d="M9 0l567 764l-500 702h231l266 -376q83 -117 118 -180q49 80 116 167l295 389h211l-515 -691l555 -775h-240l-369 523q-31 45 -64 98q-49 -80 -70 -110l-368 -511h-233z" />
    <glyph glyph-name="Y" unicode="Y" horiz-adv-x="1366" 
d="M571 0v621l-565 845h236l289 -442q80 -124 149 -248q66 115 160 259l284 431h226l-585 -845v-621h-194z" />
    <glyph glyph-name="Z" unicode="Z" horiz-adv-x="1251" 
d="M41 0v180l751 939q80 100 152 174h-818v173h1050v-173l-823 -1017l-89 -103h936v-173h-1159z" />
    <glyph glyph-name="bracketleft" unicode="[" horiz-adv-x="569" 
d="M139 -407v1873h397v-149h-217v-1575h217v-149h-397z" />
    <glyph glyph-name="backslash" unicode="\" horiz-adv-x="569" 
d="M425 -25l-425 1516h145l424 -1516h-144z" />
    <glyph glyph-name="bracketright" unicode="]" horiz-adv-x="569" 
d="M436 -407h-397v149h217v1575h-217v149h397v-1873z" />
    <glyph glyph-name="asciicircum" unicode="^" horiz-adv-x="961" 
d="M239 690h-185l353 801h145l355 -801h-181l-247 597z" />
    <glyph glyph-name="underscore" unicode="_" 
d="M-31 -407v130h1193v-130h-1193z" />
    <glyph glyph-name="grave" unicode="`" horiz-adv-x="682" 
d="M465 1194h-145l-231 280h241z" />
    <glyph glyph-name="a" unicode="a" 
d="M828 131q-100 -85 -192.5 -120t-198.5 -35q-175 0 -269 85.5t-94 218.5q0 78 35.5 142.5t93 103.5t129.5 59q53 14 160 27q218 26 321 62q1 37 1 47q0 110 -51 155q-69 61 -205 61q-127 0 -187.5 -44.5t-89.5 -157.5l-176 24q24 113 79 182.5t159 107t241 37.5
q136 0 221 -32t125 -80.5t56 -122.5q9 -46 9 -166v-240q0 -251 11.5 -317.5t45.5 -127.5h-188q-28 56 -36 131zM813 533q-98 -40 -294 -68q-111 -16 -157 -36t-71 -58.5t-25 -85.5q0 -72 54.5 -120t159.5 -48q104 0 185 45.5t119 124.5q29 61 29 180v66z" />
    <glyph glyph-name="b" unicode="b" 
d="M301 0h-167v1466h180v-523q114 143 291 143q98 0 185.5 -39.5t144 -111t88.5 -172.5t32 -216q0 -273 -135 -422t-324 -149q-188 0 -295 157v-133zM299 539q0 -191 52 -276q85 -139 230 -139q118 0 204 102.5t86 305.5q0 208 -82.5 307t-199.5 99q-118 0 -204 -102.5
t-86 -296.5z" />
    <glyph glyph-name="c" unicode="c" horiz-adv-x="1024" 
d="M828 389l177 -23q-29 -183 -148.5 -286.5t-293.5 -103.5q-218 0 -350.5 142.5t-132.5 408.5q0 172 57 301t173.5 193.5t253.5 64.5q173 0 283 -87.5t141 -248.5l-175 -27q-25 107 -88.5 161t-153.5 54q-136 0 -221 -97.5t-85 -308.5q0 -214 82 -311t214 -97q106 0 177 65
t90 200z" />
    <glyph glyph-name="d" unicode="d" 
d="M824 0v134q-101 -158 -297 -158q-127 0 -233.5 70t-165 195.5t-58.5 288.5q0 159 53 288.5t159 198.5t237 69q96 0 171 -40.5t122 -105.5v526h179v-1466h-167zM255 530q0 -204 86 -305t203 -101q118 0 200.5 96.5t82.5 294.5q0 218 -84 320t-207 102q-120 0 -200.5 -98
t-80.5 -309z" />
    <glyph glyph-name="e" unicode="e" 
d="M862 342l186 -23q-44 -163 -163 -253t-304 -90q-233 0 -369.5 143.5t-136.5 402.5q0 268 138 416t358 148q213 0 348 -145t135 -408q0 -16 -1 -48h-792q10 -175 99 -268t222 -93q99 0 169 52t111 166zM271 633h593q-12 134 -68 201q-86 104 -223 104q-124 0 -208.5 -83
t-93.5 -222z" />
    <glyph glyph-name="f" unicode="f" horiz-adv-x="569" 
d="M178 0v922h-159v140h159v113q0 107 19 159q26 70 91.5 113.5t183.5 43.5q76 0 168 -18l-27 -157q-56 10 -106 10q-82 0 -116 -35t-34 -131v-98h207v-140h-207v-922h-179z" />
    <glyph glyph-name="g" unicode="g" 
d="M102 -88l175 -26q11 -81 61 -118q67 -50 183 -50q125 0 193 50t92 140q14 55 13 231q-118 -139 -294 -139q-219 0 -339 158t-120 379q0 152 55 280.5t159.5 198.5t245.5 70q188 0 310 -152v128h166v-918q0 -248 -50.5 -351.5t-160 -163.5t-269.5 -60q-190 0 -307 85.5
t-113 257.5zM251 550q0 -209 83 -305t208 -96q124 0 208 95.5t84 299.5q0 195 -86.5 294t-208.5 99q-120 0 -204 -97.5t-84 -289.5z" />
    <glyph glyph-name="h" unicode="h" 
d="M135 0v1466h180v-526q126 146 318 146q118 0 205 -46.5t124.5 -128.5t37.5 -238v-673h-180v673q0 135 -58.5 196.5t-165.5 61.5q-80 0 -150.5 -41.5t-100.5 -112.5t-30 -196v-581h-180z" />
    <glyph glyph-name="i" unicode="i" horiz-adv-x="455" 
d="M136 1259v207h180v-207h-180zM136 0v1062h180v-1062h-180z" />
    <glyph glyph-name="j" unicode="j" horiz-adv-x="455" 
d="M134 1257v209h180v-209h-180zM-94 -412l34 153q54 -14 85 -14q55 0 82 36.5t27 182.5v1116h180v-1120q0 -196 -51 -273q-65 -100 -216 -100q-73 0 -141 19z" />
    <glyph glyph-name="k" unicode="k" horiz-adv-x="1024" 
d="M136 0v1466h180v-836l426 432h233l-406 -394l447 -668h-222l-351 543l-127 -122v-421h-180z" />
    <glyph glyph-name="l" unicode="l" horiz-adv-x="455" 
d="M131 0v1466h180v-1466h-180z" />
    <glyph glyph-name="m" unicode="m" horiz-adv-x="1706" 
d="M135 0v1062h161v-149q50 78 133 125.5t189 47.5q118 0 193.5 -49t106.5 -137q126 186 328 186q158 0 243 -87.5t85 -269.5v-729h-179v669q0 108 -17.5 155.5t-63.5 76.5t-108 29q-112 0 -186 -74.5t-74 -238.5v-617h-180v690q0 120 -44 180t-144 60q-76 0 -140.5 -40
t-93.5 -117t-29 -222v-551h-180z" />
    <glyph glyph-name="n" unicode="n" 
d="M135 0v1062h162v-151q117 175 338 175q96 0 176.5 -34.5t120.5 -90.5t56 -133q10 -50 10 -175v-653h-180v646q0 110 -21 164.5t-74.5 87t-125.5 32.5q-115 0 -198.5 -73t-83.5 -277v-580h-180z" />
    <glyph glyph-name="o" unicode="o" 
d="M68 531q0 295 164 437q137 118 334 118q219 0 358 -143.5t139 -396.5q0 -205 -61.5 -322.5t-179 -182.5t-256.5 -65q-223 0 -360.5 143t-137.5 412zM253 531q0 -204 89 -305.5t224 -101.5q134 0 223 102t89 311q0 197 -89.5 298.5t-222.5 101.5q-135 0 -224 -101
t-89 -305z" />
    <glyph glyph-name="p" unicode="p" 
d="M135 -407v1469h164v-138q58 81 131 121.5t177 40.5q136 0 240 -70t157 -197.5t53 -279.5q0 -163 -58.5 -293.5t-170 -200t-234.5 -69.5q-90 0 -161.5 38t-117.5 96v-517h-180zM298 525q0 -205 83 -303t201 -98q120 0 205.5 101.5t85.5 314.5q0 203 -83.5 304t-199.5 101
q-115 0 -203.5 -107.5t-88.5 -312.5z" />
    <glyph glyph-name="q" unicode="q" 
d="M812 -407v520q-42 -59 -117.5 -98t-160.5 -39q-189 0 -325.5 151t-136.5 414q0 160 55.5 287t161 192.5t231.5 65.5q197 0 310 -166v142h162v-1469h-180zM257 534q0 -205 86 -307.5t206 -102.5q115 0 198 97.5t83 296.5q0 212 -87.5 319t-205.5 107q-117 0 -198.5 -99.5
t-81.5 -310.5z" />
    <glyph glyph-name="r" unicode="r" horiz-adv-x="682" 
d="M133 0v1062h162v-161q62 113 114.5 149t115.5 36q91 0 185 -58l-62 -167q-66 39 -132 39q-59 0 -106 -35.5t-67 -98.5q-30 -96 -30 -210v-556h-180z" />
    <glyph glyph-name="s" unicode="s" horiz-adv-x="1024" 
d="M63 317l178 28q15 -107 83.5 -164t191.5 -57q124 0 184 50.5t60 118.5q0 61 -53 96q-37 24 -184 61q-198 50 -274.5 86.5t-116 101t-39.5 142.5q0 71 32.5 131.5t88.5 100.5q42 31 114.5 52.5t155.5 21.5q125 0 219.5 -36t139.5 -97.5t62 -164.5l-176 -24
q-12 82 -69.5 128t-162.5 46q-124 0 -177 -41t-53 -96q0 -35 22 -63q22 -29 69 -48q27 -10 159 -46q191 -51 266.5 -83.5t118.5 -94.5t43 -154q0 -90 -52.5 -169.5t-151.5 -123t-224 -43.5q-207 0 -315.5 86t-138.5 255z" />
    <glyph glyph-name="t" unicode="t" horiz-adv-x="569" 
d="M528 161l26 -159q-76 -16 -136 -16q-98 0 -152 31t-76 81.5t-22 212.5v611h-132v140h132v263l179 108v-371h181v-140h-181v-621q0 -77 9.5 -99t31 -35t61.5 -13q30 0 79 7z" />
    <glyph glyph-name="u" unicode="u" 
d="M831 0v156q-124 -180 -337 -180q-94 0 -175.5 36t-121 90.5t-55.5 133.5q-11 53 -11 168v658h180v-589q0 -141 11 -190q17 -71 72 -111.5t136 -40.5t152 41.5t100.5 113t29.5 207.5v569h180v-1062h-161z" />
    <glyph glyph-name="v" unicode="v" horiz-adv-x="1024" 
d="M430 0l-404 1062h190l228 -636q37 -103 68 -214q24 84 67 202l236 648h185l-402 -1062h-168z" />
    <glyph glyph-name="w" unicode="w" horiz-adv-x="1479" 
d="M331 0l-325 1062h186l169 -613l63 -228q4 17 55 219l169 622h185l159 -616l53 -203l61 205l182 614h175l-332 -1062h-187l-169 636l-41 181l-215 -817h-188z" />
    <glyph glyph-name="x" unicode="x" horiz-adv-x="1024" 
d="M15 0l388 552l-359 510h225l163 -249q46 -71 74 -119q44 66 81 117l179 251h215l-367 -500l395 -562h-221l-218 330l-58 89l-279 -419h-218z" />
    <glyph glyph-name="y" unicode="y" horiz-adv-x="1024" 
d="M127 -409l-20 169q59 -16 103 -16q60 0 96 20t59 56q17 27 55 134q5 15 16 44l-403 1064h194l221 -615q43 -117 77 -246q31 124 74 242l227 619h180l-404 -1080q-65 -175 -101 -241q-48 -89 -110 -130.5t-148 -41.5q-52 0 -116 22z" />
    <glyph glyph-name="z" unicode="z" horiz-adv-x="1024" 
d="M40 0v146l676 776q-115 -6 -203 -6h-433v146h868v-119l-575 -674l-111 -123q121 9 227 9h491v-155h-940z" />
    <glyph glyph-name="braceleft" unicode="{" horiz-adv-x="684" 
d="M57 612q77 2 125.5 41.5t64.5 108.5t17 236t6 220q9 84 33.5 135t60.5 81.5t92 46.5q38 10 124 10h56v-157h-31q-104 0 -138 -37.5t-34 -167.5q0 -262 -11 -331q-18 -107 -61.5 -165t-136.5 -103q110 -46 159.5 -140.5t49.5 -309.5q0 -195 4 -232q8 -68 40.5 -95
t127.5 -27h31v-157h-56q-98 0 -142 16q-64 23 -106 74.5t-54.5 130.5t-13.5 259t-17 249t-64.5 109t-125.5 42v163z" />
    <glyph glyph-name="bar" unicode="|" horiz-adv-x="532" 
d="M188 -431v1922h157v-1922h-157z" />
    <glyph glyph-name="braceright" unicode="}" horiz-adv-x="684" 
d="M626 612v-163q-77 -2 -125.5 -42t-64.5 -108.5t-17 -235.5t-6 -220q-9 -85 -33.5 -135.5t-60.5 -81t-92 -46.5q-38 -11 -124 -11h-56v157h31q104 0 138 37.5t34 168.5q0 250 9 317q16 111 64 177.5t136 103.5q-115 55 -162 145.5t-47 305.5q0 195 -5 233
q-7 67 -39.5 93.5t-127.5 26.5h-31v157h56q98 0 142 -16q64 -22 106 -74t54.5 -131t13.5 -259t17 -248.5t64.5 -108.5t125.5 -42z" />
    <glyph glyph-name="asciitilde" unicode="~" horiz-adv-x="1196" 
d="M87 557v205q106 120 278 120q60 0 126 -17.5t188 -69.5q69 -29 103.5 -38t69.5 -9q65 0 134.5 39t123.5 98v-212q-64 -60 -129.5 -87t-147.5 -27q-60 0 -114.5 14t-173 67t-197.5 53q-64 0 -120.5 -27.5t-140.5 -108.5z" />
    <glyph glyph-name="Ccedilla" unicode="&#xc7;" horiz-adv-x="1479" 
d="M1206 514l194 -49q-61 -239 -219.5 -364.5t-387.5 -125.5q-237 0 -385.5 96.5t-226 279.5t-77.5 393q0 229 87.5 399.5t249 259t355.5 88.5q220 0 370 -112t209 -315l-191 -45q-51 160 -148 233t-244 73q-169 0 -282.5 -81t-159.5 -217.5t-46 -281.5q0 -187 54.5 -326.5
t169.5 -208.5t249 -69q163 0 276 94t153 279zM622 -154l52 177h134l-33 -107q85 -10 128 -52.5t43 -94.5q0 -75 -72 -132.5t-217 -57.5q-82 0 -144 12l11 117q64 -4 94 -4q94 0 132 26q29 20 29 49q0 18 -11.5 32t-42.5 24t-103 11z" />
    <glyph glyph-name="ccedilla" unicode="&#xe7;" horiz-adv-x="1024" 
d="M828 389l177 -23q-29 -183 -148.5 -286.5t-293.5 -103.5q-218 0 -350.5 142.5t-132.5 408.5q0 172 57 301t173.5 193.5t253.5 64.5q173 0 283 -87.5t141 -248.5l-175 -27q-25 107 -88.5 161t-153.5 54q-136 0 -221 -97.5t-85 -308.5q0 -214 82 -311t214 -97q106 0 177 65
t90 200zM411 -134l52 177h134l-33 -107q85 -10 128 -52.5t43 -94.5q0 -75 -72 -132.5t-217 -57.5q-82 0 -144 12l11 117q64 -4 94 -4q94 0 132 26q29 20 29 49q0 18 -11.5 32t-42.5 24t-103 11z" />
    <glyph glyph-name="ecircumflex" unicode="&#xea;" 
d="M862 342l186 -23q-44 -163 -163 -253t-304 -90q-233 0 -369.5 143.5t-136.5 402.5q0 268 138 416t358 148q213 0 348 -145t135 -408q0 -16 -1 -48h-792q10 -175 99 -268t222 -93q99 0 169 52t111 166zM271 633h593q-12 134 -68 201q-86 104 -223 104q-124 0 -208.5 -83
t-93.5 -222zM567 1364l-113 -170h-206l216 280h192l225 -280h-204z" />
    <glyph glyph-name="icircumflex" unicode="&#xee;" horiz-adv-x="569" 
d="M188 0v1062h180v-1062h-180zM292 1364l-113 -170h-206l216 280h192l225 -280h-204z" />
    <glyph glyph-name="otilde" unicode="&#xf5;" 
d="M68 531q0 295 164 437q137 118 334 118q219 0 358 -143.5t139 -396.5q0 -205 -61.5 -322.5t-179 -182.5t-256.5 -65q-223 0 -360.5 143t-137.5 412zM253 531q0 -204 89 -305.5t224 -101.5q134 0 223 102t89 311q0 197 -89.5 298.5t-222.5 101.5q-135 0 -224 -101
t-89 -305zM231 1219q-1 104 57 166q57 62 146 62q62 0 169 -54q59 -30 94 -30q32 0 49 17.5t24 69.5h130q-3 -114 -57.5 -171t-138.5 -57q-63 0 -166 56q-67 36 -98 36q-34 0 -55 -24q-22 -24 -21 -71h-133z" />
    <glyph glyph-name="ucircumflex" unicode="&#xfb;" 
d="M831 0v156q-124 -180 -337 -180q-94 0 -175.5 36t-121 90.5t-55.5 133.5q-11 53 -11 168v658h180v-589q0 -141 11 -190q17 -71 72 -111.5t136 -40.5t152 41.5t100.5 113t29.5 207.5v569h180v-1062h-161zM564 1364l-113 -170h-206l216 280h192l225 -280h-204z" />
    <glyph glyph-name="cent" unicode="&#xa2;" 
d="M744 894l-222 -766q33 -9 61 -9q104 0 179.5 71t92.5 199l179 -20q-33 -185 -156.5 -291t-291.5 -106q-49 0 -103 14l-118 -395l-112 32l115 398q-115 55 -188 183.5t-73 321.5q0 178 58.5 305.5t175 191.5t237.5 64q36 0 100 -8l113 387l110 -32l-112 -387
q99 -43 152 -115.5t74 -181.5l-175 -27q-26 112 -96 171zM638 940q-32 3 -50 3q-82 0 -153.5 -45.5t-107 -141t-35.5 -221.5q0 -132 32 -223t91 -135z" />
    <glyph glyph-name="sterling" unicode="&#xa3;" 
d="M396 809h315v-148h-284q19 -44 19 -88q0 -87 -41.5 -184t-136.5 -198q79 22 144 22q83 0 187 -25q172 -41 233 -41q74 0 192 56l58 -165q-92 -39 -142.5 -51t-100.5 -12q-42 0 -85 8q-27 5 -129.5 36.5t-132.5 37.5q-47 8 -94 8q-72 0 -153.5 -25t-148.5 -68l-69 173
q96 53 163 151.5t67 240.5q0 61 -17 124h-196v148h154q-33 112 -42 163.5t-9 100.5q0 208 154 325q124 93 300 93q181 0 298.5 -99.5t144.5 -279.5l-179 -27q-15 120 -89.5 189t-178.5 69q-111 0 -184.5 -71.5t-73.5 -172.5q0 -111 57 -290z" />
    <glyph glyph-name="section" unicode="&#xa7;" 
d="M143 -70l181 26q28 -130 89 -182.5t166 -52.5q102 0 159.5 52t57.5 122q0 51 -36 94q-62 75 -340 245q-148 91 -206.5 142.5t-95.5 121.5t-37 146q0 96 60 174t165 109q-71 68 -100 125.5t-29 122.5q0 128 100 222t265 94q187 0 292 -89t126 -258l-187 -19
q-21 122 -73.5 170t-141.5 48q-92 0 -148.5 -49.5t-56.5 -109.5q0 -52 36 -96q56 -68 306 -220q157 -96 212 -141q71 -60 104.5 -124t33.5 -139q0 -113 -73 -193q-42 -46 -154 -93q80 -61 119.5 -131t39.5 -150q0 -88 -50 -166.5t-144 -120t-203 -41.5q-191 0 -303 95.5
t-134 265.5zM728 244q74 38 110.5 88.5t36.5 98.5q0 57 -52 120q-53 63 -225 169q-137 84 -204 138q-81 -46 -115.5 -92t-34.5 -102q0 -63 46 -120t207 -152q134 -79 231 -148z" />
    <glyph glyph-name="bullet" unicode="&#x2022;" horiz-adv-x="931" 
d="M817 662q0 -145 -103.5 -248t-248.5 -103t-248 103t-103 248t103 248t248 103t248.5 -103t103.5 -248z" />
    <glyph glyph-name="paragraph" unicode="&#xb6;" horiz-adv-x="1100" 
d="M405 -407v1045q-187 10 -295.5 121.5t-108.5 284.5q0 193 120.5 307.5t352.5 114.5h633v-173h-144v-1700h-170v1700h-223v-1700h-165z" />
    <glyph glyph-name="registered" unicode="&#xae;" horiz-adv-x="1509" 
d="M758 1491q190 0 371 -97.5t282 -279t101 -378.5q0 -195 -99.5 -375t-279 -279.5t-375.5 -99.5t-375.5 99.5t-279.5 279.5t-100 375q0 197 101.5 378.5t282.5 279t371 97.5zM758 1366q-159 0 -309.5 -81.5t-235.5 -233t-85 -315.5q0 -163 83.5 -312.5t233.5 -233
t313 -83.5t313 83.5t233 233t83 312.5q0 164 -84.5 315.5t-235.5 233t-309 81.5zM427 319v812h279q143 0 207 -22.5t102 -78.5t38 -119q0 -89 -63.5 -155t-168.5 -74q43 -18 69 -43q49 -48 120 -161l99 -159h-160l-72 128q-85 151 -137 189q-36 28 -105 28h-77v-345h-131z
M558 776h159q114 0 155.5 34t41.5 90q0 36 -20 64.5t-55.5 42.5t-131.5 14h-149v-245z" />
    <glyph glyph-name="copyright" unicode="&#xa9;" horiz-adv-x="1509" 
d="M758 1491q190 0 371 -97.5t282 -279t101 -378.5q0 -195 -99.5 -375t-279 -279.5t-375.5 -99.5t-375.5 99.5t-279.5 279.5t-100 375q0 197 101.5 378.5t282.5 279t371 97.5zM758 1366q-159 0 -309.5 -81.5t-235.5 -233t-85 -315.5q0 -163 83.5 -312.5t233.5 -233
t313 -83.5t313 83.5t233 233t83 312.5q0 164 -84.5 315.5t-235.5 233t-309 81.5zM1000 614l123 -36q-30 -125 -127.5 -199.5t-236.5 -74.5q-176 0 -286 114t-110 316q0 132 50 229.5t142.5 147t211.5 49.5q133 0 221 -63.5t120 -172.5l-119 -29q-30 74 -88.5 113.5
t-137.5 39.5q-115 0 -189.5 -82t-74.5 -235t70.5 -231.5t182.5 -78.5q90 0 158 52t90 141z" />
    <glyph glyph-name="trademark" unicode="&#x2122;" horiz-adv-x="2048" 
d="M489 651v694h-264v121h666v-121h-266v-694h-136zM982 651v815h200l206 -651l199 651h196v-815h-124v684l-210 -684h-123l-219 694v-694h-125z" />
    <glyph glyph-name="acute" unicode="&#xb4;" horiz-adv-x="682" 
d="M222 1194l133 280h236l-220 -280h-149z" />
    <glyph glyph-name="plusminus" unicode="&#xb1;" horiz-adv-x="1124" 
d="M477 260v403h-399v167h399v399h170v-399h399v-167h-399v-403h-170zM1046 0h-968v168h968v-168z" />
    <glyph glyph-name="lessequal" unicode="&#x2264;" horiz-adv-x="1124" 
d="M77 762v168l971 410v-180l-770 -315l770 -319v-179zM1046 106h-968v167h968v-167z" />
    <glyph glyph-name="greaterequal" unicode="&#x2265;" horiz-adv-x="1124" 
d="M1048 762l-971 -415v179l769 319l-769 315v180l971 -410v-168zM1046 106h-968v167h968v-167z" />
    <glyph glyph-name="yen" unicode="&#xa5;" 
d="M477 0v325h-415v139h415v143h-415v148h341l-406 711h200l290 -516q49 -88 76 -154q23 53 82 163l274 507h214l-405 -711h341v-148h-412v-143h412v-139h-412v-325h-180z" />
    <glyph glyph-name="guillemotleft" unicode="&#xab;" 
d="M340 528l259 -456h-146l-319 456l319 456h148zM727 528l264 -456h-152l-313 456l313 456h152z" />
    <glyph glyph-name="guillemotright" unicode="&#xbb;" 
d="M791 528l-261 456h148l319 -456l-319 -456h-147zM404 528l-264 456h151l314 -456l-314 -456h-151z" />
    <glyph glyph-name="endash" unicode="&#x2013;" 
d="M-4 458v145h1139v-145h-1139z" />
    <glyph glyph-name="emdash" unicode="&#x2014;" horiz-adv-x="2048" 
d="M0 458v145h2048v-145h-2048z" />
    <glyph glyph-name="quotedblleft" unicode="&#x201c;" horiz-adv-x="682" 
d="M276 1220v-209h-193v165q0 134 32 194q42 80 133 121l44 -70q-55 -23 -81 -68.5t-29 -132.5h94zM586 1220v-209h-193v165q0 134 32 194q42 80 133 121l44 -70q-55 -23 -81 -68.5t-29 -132.5h94z" />
    <glyph glyph-name="quotedblright" unicode="&#x201d;" horiz-adv-x="682" 
d="M87 1272v209h193v-165q0 -134 -31 -193q-43 -81 -134 -122l-44 71q54 22 80.5 69.5t29.5 130.5h-94zM397 1272v209h193v-165q0 -134 -31 -193q-43 -81 -134 -122l-44 71q54 22 80.5 69.5t29.5 130.5h-94z" />
    <glyph glyph-name="quoteleft" unicode="&#x2018;" horiz-adv-x="455" 
d="M321 1220v-209h-193v165q0 134 32 194q42 80 133 121l44 -70q-55 -23 -81 -68.5t-29 -132.5h94z" />
    <glyph glyph-name="quoteright" unicode="&#x2019;" horiz-adv-x="455" 
d="M124 1272v209h193v-165q0 -134 -31 -193q-43 -81 -134 -122l-44 71q54 22 80.5 69.5t29.5 130.5h-94z" />
    <glyph glyph-name="divide" unicode="&#xf7;" horiz-adv-x="1124" 
d="M459 922v205h205v-205h-205zM1046 639h-968v168h968v-168zM459 319v205h205v-205h-205z" />
    <glyph glyph-name="fraction" unicode="&#x2044;" horiz-adv-x="1018" 
d="M926 1574l-642 -1772h-180l641 1772h181z" />
    <glyph glyph-name="Euro" unicode="&#x20ac;" 
d="M790 1325q-168 0 -282 -81q-68 -48 -123 -136q-56 -91 -66 -173h682l-27 -134h-671q-1 -21 -1 -40q0 -77 1 -92h644l-28 -134h-595q42 -229 202 -325q115 -69 249 -69q187 0 292 98v-206q-125 -58 -276 -58q-452 0 -611 376q-32 76 -55 184h-153l28 134h105q-3 42 -3 91
q0 20 1 41h-131l28 134h116q62 326 323 468q161 88 355 88q186 0 313 -81l-40 -186q-122 101 -277 101z" />
    <glyph glyph-name="guilsinglleft" unicode="&#x2039;" horiz-adv-x="682" 
d="M291 527l265 -455h-149l-315 455l315 457h149z" />
    <glyph glyph-name="guilsinglright" unicode="&#x203a;" horiz-adv-x="682" 
d="M357 530l-265 454h149l304 -448l-304 -464h-149z" />
    <glyph glyph-name="periodcentered" unicode="&#x2219;" horiz-adv-x="569" 
d="M185 619v205h205v-205h-205z" />
    <glyph glyph-name="Ecircumflex" unicode="&#xca;" horiz-adv-x="1366" 
d="M162 0v1466h1060v-173h-866v-449h811v-172h-811v-499h900v-173h-1094zM707 1836l-113 -170h-206l216 280h192l225 -280h-204z" />
    <glyph glyph-name="Icircumflex" unicode="&#xce;" horiz-adv-x="569" 
d="M191 0v1466h194v-1466h-194zM287 1836l-113 -170h-206l216 280h192l225 -280h-204z" />
    <glyph glyph-name="Ucircumflex" unicode="&#xdb;" horiz-adv-x="1479" 
d="M1120 1466h194v-847q0 -221 -50 -351t-180.5 -211.5t-342.5 -81.5q-206 0 -337 71t-187 205.5t-56 367.5v847h194v-846q0 -191 35.5 -281.5t122 -139.5t211.5 -49q214 0 305 97t91 373v846zM736 1836l-113 -170h-206l216 280h192l225 -280h-204z" />
    <glyph glyph-name="brokenbar" unicode="&#xa6;" horiz-adv-x="532" 
d="M345 1491v-790h-157v790h157zM345 360v-791h-157v791h157z" />
    <glyph glyph-name="minus" unicode="&#x2212;" horiz-adv-x="1196" 
d="M1082 639h-968v168h968v-168z" />
    <glyph glyph-name="multiply" unicode="&#xd7;" horiz-adv-x="1196" 
d="M161 409l315 315l-314 314l122 122l314 -314l313 313l120 -121l-312 -313l314 -314l-122 -122l-314 314l-315 -315z" />
    <glyph glyph-name="Scedilla" unicode="&#x15e;" horiz-adv-x="1366" 
d="M92 471l183 16q13 -110 60.5 -180.5t147.5 -114t225 -43.5q111 0 196 33t126.5 90.5t41.5 125.5q0 69 -40 120.5t-132 86.5q-59 23 -261 71.5t-283 91.5q-105 55 -156.5 136.5t-51.5 182.5q0 111 63 207.5t184 146.5t269 50q163 0 287.5 -52.5t191.5 -154.5t72 -231
l-186 -14q-15 139 -101.5 210t-255.5 71q-176 0 -256.5 -64.5t-80.5 -155.5q0 -79 57 -130q56 -51 292.5 -104.5t324.5 -93.5q128 -59 189 -149.5t61 -208.5q0 -117 -67 -220.5t-192.5 -161t-282.5 -57.5q-199 0 -333.5 58t-211 174.5t-80.5 263.5zM555 -144l52 177h134
l-33 -107q85 -10 128 -52.5t43 -94.5q0 -75 -72 -132.5t-217 -57.5q-82 0 -144 12l11 117q64 -4 94 -4q94 0 132 26q29 20 29 49q0 18 -11.5 32t-42.5 24t-103 11z" />
    <glyph glyph-name="scedilla" unicode="&#x15f;" horiz-adv-x="1024" 
d="M63 317l178 28q15 -107 83.5 -164t191.5 -57q124 0 184 50.5t60 118.5q0 61 -53 96q-37 24 -184 61q-198 50 -274.5 86.5t-116 101t-39.5 142.5q0 71 32.5 131.5t88.5 100.5q42 31 114.5 52.5t155.5 21.5q125 0 219.5 -36t139.5 -97.5t62 -164.5l-176 -24
q-12 82 -69.5 128t-162.5 46q-124 0 -177 -41t-53 -96q0 -35 22 -63q22 -29 69 -48q27 -10 159 -46q191 -51 266.5 -83.5t118.5 -94.5t43 -154q0 -90 -52.5 -169.5t-151.5 -123t-224 -43.5q-207 0 -315.5 86t-138.5 255zM375 -134l52 177h134l-33 -107q85 -10 128 -52.5
t43 -94.5q0 -75 -72 -132.5t-217 -57.5q-82 0 -144 12l11 117q64 -4 94 -4q94 0 132 26q29 20 29 49q0 18 -11.5 32t-42.5 24t-103 11z" />
    <glyph glyph-name="middot" unicode="&#xb7;" horiz-adv-x="724" 
d="M482 832h-239v285h239v-285z" />
    <glyph glyph-name="H18533" unicode="&#x25cf;" horiz-adv-x="1237" 
d="M177 576q0 183 129 312t312 129q182 0 311 -129t129 -312q0 -182 -129 -311t-311 -129q-183 0 -312 129t-129 311z" />
    <glyph glyph-name="openbullet" unicode="&#x25e6;" horiz-adv-x="726" 
d="M363 928q104 0 177.5 -73.5t73.5 -177.5t-73.5 -177.5t-177.5 -73.5t-177.5 73.5t-73.5 177.5t73 177.5t178 73.5zM363 852q-73 0 -124 -51.5t-51 -123.5q0 -73 51.5 -124t123.5 -51t123.5 51t51.5 124q0 72 -51 123.5t-124 51.5z" />
    <glyph glyph-name="afii61352" unicode="&#x2116;" horiz-adv-x="2336" 
d="M1173 0h-222l-615 1284v-1284h-185v1489h281l556 -1179v1179h185v-1489zM2202 1030q0 -227 -117 -358.5t-303 -131.5q-193 0 -307 131.5t-114 358.5q0 233 117 361.5t304 128.5t303.5 -128.5t116.5 -361.5zM2071 176h-578v162h578v-162zM2022 1030q0 175 -64.5 257.5
t-175.5 82.5t-176 -82.5t-65 -257.5q0 -169 64 -254.5t177 -85.5t176.5 85.5t63.5 254.5z" />
    <glyph glyph-name="currency" unicode="&#xa4;" 
d="M213 961l-139 136l115 119l139 -139q106 72 237 72q132 0 237 -72l139 139l116 -119l-139 -136q71 -110 71 -235q0 -126 -71 -236l139 -136l-116 -119l-139 140q-105 -73 -237 -73q-131 0 -237 73l-139 -140l-115 119l139 136q-71 110 -71 236q0 125 71 235zM305 726
q0 -108 76 -184t183 -76t183 76t76 184q0 107 -75.5 183t-183.5 76q-107 0 -183 -76t-76 -183z" />
    <glyph glyph-name="afii57388" unicode="&#x60c;" horiz-adv-x="415" 
d="M318 373q-12 -4 -37 -19q-36 -29 -36 -58q52 -18 52 -79q0 -37 -25.5 -62.5t-61.5 -25.5q-42 0 -68.5 29.5t-26.5 75.5q0 72 54 152q44 65 121 114q0 -112 28 -127z" />
    <glyph glyph-name="afii57403" unicode="&#x61b;" horiz-adv-x="415" 
d="M318 644q-12 -4 -37 -19q-36 -29 -36 -58q52 -18 52 -79q0 -37 -25.5 -62.5t-61.5 -25.5q-42 0 -68.5 29.5t-26.5 75.5q0 72 54 152q44 65 121 114q0 -112 28 -127zM297 219q0 -36 -26.5 -63t-62.5 -27q-37 0 -64 27t-27 63t27 63t63 27q37 0 63.5 -27t26.5 -63z" />
    <glyph glyph-name="afii57407" unicode="&#x61f;" horiz-adv-x="650" 
d="M580 1063q0 -67 -37 -112.5t-90 -45.5q-37 0 -71.5 27.5t-34.5 63.5q0 100 110 140q-15 74 -103 74q-60 0 -94.5 -34t-34.5 -87q0 -48 59 -166l66 -132q35 -71 42.5 -103.5t7.5 -113.5v-94l-105 -108v95q0 153 -44 203l-84 95q-97 110 -97 230q0 133 84 214q78 76 194 76
q99 0 165.5 -64t66.5 -158zM438 219q0 -36 -26.5 -63t-62.5 -27q-37 0 -64 27t-27 63t27 63t63 27q37 0 63.5 -27t26.5 -63z" />
    <glyph glyph-name="afii57409" unicode="&#x621;" horiz-adv-x="747" 
d="M659 362h-198q-56 0 -106 49q-46 45 -51 97q0 26 21 41t52 20q47 0 90 -48q14 38 10 78q-5 21 -26 50q48 32 51 107q2 49 -35 92q3 -36 0 -58q-8 -52 -105 -69q-34 -6 -114 -16q-104 -48 -104 -155q0 -66 42 -121t121 -81l9 -3q-97 -24 -147 -109q-18 -31 -18 -70
q0 -21 18 -116q15 63 15 65q12 33 41 54q55 39 186 49l248 18v126z" />
    <glyph glyph-name="tatweel" unicode="&#x640;" horiz-adv-x="520" 
d="M-23 201h543v180h-538z" />
    <glyph glyph-name="afii57392" unicode="&#x660;" horiz-adv-x="450" 
d="M348 668q1 -49 -36.5 -85t-87.5 -37q-48 -1 -84.5 36.5t-37.5 85.5q-1 50 36.5 87.5t87.5 37.5t85.5 -37.5t36.5 -87.5z" />
    <glyph glyph-name="afii57393" unicode="&#x661;" horiz-adv-x="345" 
d="M245 0h-145v1368h145v-1368z" />
    <glyph glyph-name="afii57394" unicode="&#x662;" horiz-adv-x="728" 
d="M628 1186h-356l3 -1014q3 -127 -13 -159q-14 -27 -70 -25l-56 2h-16l-20 -2v1276q0 92 92 92h436v-170z" />
    <glyph glyph-name="afii57395" unicode="&#x663;" horiz-adv-x="911" 
d="M811 1209q0 -263 -298 -263q-68 0 -108 9q-7 1 -22 5h-125v-961h-158v1356l47 29l28 8l11 -3l6 -3q39 0 56 -23l8 -20q2 -5 3 -15.5t2 -22.5l-3 -81l-4 -19l-4 -29q0 -57 73 -57q28 0 42 22t13 62l-1 70l-2 14l1 36q1 45 43 57q10 3 23 3q42 1 60 -23q12 -17 14 -59
l-7 -106q-2 -37 13 -56t51 -20q33 -1 59 18q26 24 24 88l-2 72q-3 96 77 97q50 1 68 -27q14 -22 13 -74l-1 -39v-45z" />
    <glyph glyph-name="afii57396" unicode="&#x664;" horiz-adv-x="762" 
d="M162 712l-38 37q-13 12 -17 55l-5 48l-5 62v134q0 200 123 283q77 52 213 53q107 1 150 -13q80 -26 81 -108q1 -94 -99 -99l-184 -9q-127 -21 -129 -107l-1 -55l-2 -22q0 -182 131 -182h180q38 -5 67.5 -33.5t29.5 -65.5q0 -77 -97 -95h-180q-79 0 -109 -61
q-24 -48 -22 -122l1 -41q0 -14 2 -35q0 -81 129 -107l184 -9q99 -5 99 -99q0 -82 -81 -108q-42 -13 -150 -13q-133 0 -213 53q-66 44 -98 131q-25 69 -25 152v134l3 39l5 37l2 34l-2 23q-3 32 19 60z" />
    <glyph glyph-name="afii57397" unicode="&#x665;" horiz-adv-x="835" 
d="M734 285q0 -81 -90 -176q-103 -108 -238 -109q-125 -1 -221 110q-86 99 -86 207v734q0 134 92 230.5t225 97.5q162 1 258 -148q16 -25 25 -41q35 -64 35 -108v-797zM416 1149q-88 0 -125 -121q-2 -8 -10 -59l-4 -88l-5 -195q0 -2 1 -40l1 -39l7 -149q1 -38 6 -102
q6 -40 20 -71q33 -94 104 -95q74 -1 116 119q14 40 21 114q0 3 2 54q1 41 4 124l5 88q2 43 -10 193q-1 36 -8 96q-2 29 -18 66q-44 105 -107 105z" />
    <glyph glyph-name="afii57398" unicode="&#x666;" horiz-adv-x="741" 
d="M641 6q-12 -9 -51 -8l-119 2v1219l-194 -3l-94 -4q-25 -1 -80 7v170h460q14 0 35 -9l43 -30v-1344z" />
    <glyph glyph-name="afii57399" unicode="&#x667;" horiz-adv-x="926" 
d="M826 1364l-23 -86l-17 -79l-24 -119l-81 -447l-68 -415q-36 -217 -121 -218q-56 -1 -70 19q-10 27 -40 174q-14 71 -47 223q-21 82 -64 256l-170 737h170q29 -53 58 -173l69 -289l84 -367q16 59 61 267l66 338q31 159 57 224h158z" />
    <glyph glyph-name="afii57400" unicode="&#x668;" horiz-adv-x="886" 
d="M786 2h-149l-20 2l-98 542q-41 201 -64 247q-20 -72 -56 -217l-125 -578l-104 -4l-39 3l-31 5l291 1382h150z" />
    <glyph glyph-name="afii57401" unicode="&#x669;" horiz-adv-x="660" 
d="M425 1161l1 -8q0 -40 -27 -69.5t-67 -29.5l-8 -1q-40 0 -69.5 27t-29.5 67l-1 8q0 40 27 69.5t67 29.5l8 1q40 0 69.5 -27t29.5 -67zM553 1349q-11 44 -59 44h-312q-45 0 -58 -43l-10 -105l-3 -67l-7 -137q-5 -108 119 -120q110 0 141 -28v-895h197z" />
    <glyph glyph-name="afii57381" unicode="&#x66a;" horiz-adv-x="846" 
d="M234 985q0 -37 -25 -61.5t-62 -24.5q-36 0 -61 24.5t-25 61.5q0 36 25 61t61 25q37 0 62 -25t25 -61zM694 1154l-444 -1266l-61 26l447 1266zM791 83q0 -37 -25 -61.5t-61 -24.5q-37 0 -62 24.5t-25 61.5q0 36 25.5 61t61.5 25t61 -25t25 -61z" />
    <glyph glyph-name="afii63167" unicode="&#x66d;" horiz-adv-x="1077" 
d="M868 1174q0 -29 -22 -47t-55 -18q-53 0 -127 25l-74 26l-10 -30l118 -58q86 -47 86 -101q0 -28 -18.5 -47.5t-46.5 -19.5q-52 0 -158 207q-9 -6 -21 -9q22 -68 31 -102q17 -60 17 -104q0 -30 -16.5 -50t-48.5 -20q-31 0 -47.5 19.5t-16.5 50.5q0 45 18 100t36 106l-27 9
q-34 -64 -67 -127q-46 -80 -94 -80q-28 0 -46 19t-18 48q0 54 86 100q8 4 121 59q-8 16 -11 30q-67 -23 -100 -33q-59 -18 -102 -18q-33 0 -54.5 17.5t-21.5 47.5q0 31 21 49t55 18q44 0 97.5 -18.5t104.5 -36.5q3 16 11 34q-61 28 -121 57q-86 45 -86 99q0 29 18 49t46 20
q47 0 93 -80q40 -76 68 -128l25 8q-2 9 -25 76q-27 81 -27 130q0 30 16.5 51.5t47.5 21.5q32 0 48.5 -21t16.5 -52q0 -45 -18.5 -99.5t-35.5 -104.5l27 -10q63 122 66 127q46 81 92 81q29 0 47 -20t18 -49q0 -53 -85 -98q-73 -36 -119 -58l10 -34q65 24 98 35q60 20 103 20
q35 0 56 -17.5t21 -49.5zM563 1174q0 18 -11 29t-29 11q-17 0 -28 -11t-11 -29q0 -16 11 -28t28 -12t28.5 11.5t11.5 28.5z" />
    <glyph glyph-name="aekurdi" unicode="&#x6d5;" horiz-adv-x="835" 
d="M734 285q0 -81 -90 -176q-103 -108 -238 -109q-125 -1 -221 110q-86 99 -86 207v734q0 134 92 230.5t225 97.5q162 1 258 -148q16 -25 25 -41q35 -64 35 -108v-797zM416 1149q-88 0 -125 -121q-2 -8 -10 -59l-4 -88l-5 -195q0 -2 1 -40l1 -39l7 -149q1 -38 6 -102
q6 -40 20 -71q33 -94 104 -95q74 -1 116 119q14 40 21 114q0 3 2 54q1 41 4 124l5 88q2 43 -10 193q-1 36 -8 96q-2 29 -18 66q-44 105 -107 105z" />
    <glyph glyph-name="afii62843" unicode="&#x6f4;" horiz-adv-x="762" 
d="M162 712l-38 37q-13 12 -17 55l-5 48l-5 62v134q0 200 123 283q77 52 213 53q107 1 150 -13q80 -26 81 -108q1 -94 -99 -99l-184 -9q-127 -21 -129 -107l-1 -55l-2 -22q0 -182 131 -182h180q38 -5 67.5 -33.5t29.5 -65.5q0 -77 -97 -95h-180q-79 0 -109 -61
q-24 -48 -22 -122l1 -41q0 -14 2 -35q0 -81 129 -107l184 -9q99 -5 99 -99q0 -82 -81 -108q-42 -13 -150 -13q-133 0 -213 53q-66 44 -98 131q-25 69 -25 152v134l3 39l5 37l2 34l-2 23q-3 32 19 60z" />
    <glyph glyph-name="afii62844" unicode="&#x6f5;" horiz-adv-x="835" 
d="M734 285q0 -81 -90 -176q-103 -108 -238 -109q-125 -1 -221 110q-86 99 -86 207v734q0 134 92 230.5t225 97.5q162 1 258 -148q16 -25 25 -41q35 -64 35 -108v-797zM416 1149q-88 0 -125 -121q-2 -8 -10 -59l-4 -88l-5 -195q0 -2 1 -40l1 -39l7 -149q1 -38 6 -102
q6 -40 20 -71q33 -94 104 -95q74 -1 116 119q14 40 21 114q0 3 2 54q1 41 4 124l5 88q2 43 -10 193q-1 36 -8 96q-2 29 -18 66q-44 105 -107 105z" />
    <glyph glyph-name="afii62845" unicode="&#x6f6;" horiz-adv-x="741" 
d="M641 6q-12 -9 -51 -8l-119 2v1219l-194 -3l-94 -4q-25 -1 -80 7v170h460q14 0 35 -9l43 -30v-1344z" />
    <glyph glyph-name="afii57506" unicode="&#x67e;" horiz-adv-x="1475" 
d="M897 -337l-110 112l-111 -112l111 -111zM674 -229l-108 110l108 109l219 -219l107 110l-107 109zM20 201h1358v616l-243 -242l71 -49v-145h-841v127z" />
    <glyph glyph-name="afii57505" unicode="&#x6a4;" horiz-adv-x="1540" 
d="M1294 631v217q-9 1 -30 4q-55 0 -70 -29q-31 -58 -12 -100q-56 3 -74 -43q-3 -12 -3 -24q0 -13 3 -25h186zM1073 844q12 102 80 151q18 13 88 15h96q50 1 90 22l29 15v-846h-1425l309 327l49 -147h916v96h-371v125q0 98 10 131q5 18 33 58q23 34 96 53zM808 1081
l-125 129l125 127l256 -256l123 129l-123 127zM1056 1416l-111 113l-110 -113l110 -111z" />
    <glyph glyph-name="afii57507" unicode="&#x686;" horiz-adv-x="860" 
d="M109 893v-209l14 -10q50 -36 119 -37q108 -2 131 -10q29 -6 67 -68q41 -67 37 -123l-2 -28l-18 -5q-168 -47 -281 -152q-152 -142 -149 -279q3 -142 118 -242q101 -88 224 -88q233 0 317 232l12 33l-36 36l-13 -32q-31 -76 -90.5 -121.5t-134.5 -46.5q-104 -2 -167 84
q-56 76 -56 183q0 111 98 192q106 88 264 88h234v144h-197v62q0 99 -31 163q-33 69 -127 132q-41 28 -153 34q-106 7 -150 43zM587 -117l-110 112l-111 -112l111 -111zM364 -9l-108 110l108 109l219 -219l107 110l-107 109z" />
    <glyph glyph-name="afii57508" unicode="&#x698;" horiz-adv-x="565" 
d="M416 528q-70 119 -185 213l-28 23q21 -53 22 -102q2 -124 -90 -203l58 -21q69 -25 111 -128q37 -92 30 -173q-12 -142 -132.5 -234.5t-271.5 -92.5q-31 0 -61 4l-59 8l55 -19q124 -43 231 -43q220 0 348 193q64 96 66 264q2 149 -94 311zM158 1081l-125 129l125 127
l256 -256l123 129l-123 127zM406 1416l-111 113l-110 -113l110 -111z" />
    <glyph glyph-name="afii57567" unicode="&#x6a9;" horiz-adv-x="2089" 
d="M1540 684v170h-139v-170h139zM303 381h926v123h-813l643 852v-361h-86l-234 -311h488v170q0 59 49 102q44 39 86 39h207q63 6 103.5 -33t31.5 -102v-176h311l-2 -518q0 -28 -6 -90q-4 -46 -35 -68q-20 -15 -90 -45q-40 -17 -61 -55l-15 -27l-14 25q-23 40 -90 59
q-76 21 -88 35q-74 74 -74 137v244h158v-178q0 -58 8 -78q14 -37 74 -37q29 0 47 28q16 24 16 54q0 15 -6 31v303h-428v-303h-1393q75 42 134 106q69 75 106 185z" />
    <glyph glyph-name="afii57509" unicode="&#x6af;" horiz-adv-x="2089" 
d="M1540 684v170h-139v-170h139zM303 381h926v123h-813l643 852v-361h-86l-234 -311h488v170q0 59 49 102q44 39 86 39h207q63 6 103.5 -33t31.5 -102v-176h311l-2 -518q0 -28 -6 -90q-4 -46 -35 -68q-20 -15 -90 -45q-40 -17 -61 -55l-15 -27l-14 25q-23 40 -90 59
q-76 21 -88 35q-74 74 -74 137v244h158v-178q0 -58 8 -78q14 -37 74 -37q29 0 47 28q16 24 16 54q0 15 -6 31v303h-428v-303h-1393q75 42 134 106q69 75 106 185zM970 1362l-639 -811l-13 119l652 818v-126z" />
    <glyph glyph-name="afii57555" unicode="&#x6cc;" horiz-adv-x="811" 
d="M756 709l-58 -41l-247 241l-189 -282q-36 -53 -37 -88q-1 -38 25 -82l295 -320q18 -30 18 -65q0 -53 -47 -107q-64 -74 -184 -76q-76 -1 -142 41q-73 47 -73 121q0 101 71 101q32 0 48 -48q23 54 2 95q-31 47 -70 59q15 27 12 61q-3 37 -37 62t-71 27q-15 1 -27 -5
q45 -63 47 -116q1 -34 -21.5 -103t-21.5 -108q2 -130 116 -212q105 -75 238 -69q119 5 222 99q98 89 98 202q0 50 -18 90l-5 11l-270 295q-5 5 -16 22q-5 15 -5 28q0 19 11 38l53 73l283 -268v324z" />
    <glyph glyph-name="afii52400" unicode="&#x622;" horiz-adv-x="451" 
d="M115 199v1274l243 -242l-82 -49v-983h-161zM35 1497q1 55 -23 105q94 -76 208 -76q112 0 186 45q54 33 104 117q-106 -88 -260 -99q-148 -11 -285 99q28 -93 29 -170q3 -47 5 -94q3 -50 -5 -80q39 47 41 153z" />
    <glyph glyph-name="afii57411" unicode="&#x623;" horiz-adv-x="451" 
d="M115 199v1274l243 -242l-82 -49v-983h-161zM302 1696h-139q-36 0 -78 37q-37 33 -37 68q0 43 52 43q33 0 65 -33q8 19 8 53q0 18 -18 39q18 12 25 31q25 65 -15 113q3 -29 0 -43q-9 -38 -76 -50q-15 -3 -82 -12q-70 -36 -71 -98q-2 -78 115 -156l6 -4q-71 -15 -109 -80
q-34 -58 -14 -131q27 119 192 119h176v104z" />
    <glyph glyph-name="afii57412" unicode="&#x624;" horiz-adv-x="741" 
d="M467 381h-217v12q0 49 10 70q18 36 76 26q-21 37 0 86q7 17 43 21q24 1 72 6l16 2v-223zM594 815q-21 -18 -162.5 -42.5t-155.5 -35.5q-60 -47 -75 -159h-17q-63 0 -96 -56q-27 -46 -27 -176v-145h435v-25q0 -50 -2 -70q-14 -141 -107 -223q-82 -72 -211 -76
q-30 -1 -53 5l-60 8l56 -19q112 -38 205 -39q165 -2 284 172q45 66 45 277v655zM580 1075h-152q-42 0 -82 39q-37 36 -39 74q-1 18 17 33q16 11 38 14q37 0 70 -37q12 31 8 59q-2 15 -20 39q37 26 39 82q1 38 -27 72q2 -15 2 -26t-2 -19q-12 -40 -82 -53q-23 -4 -86 -13
q-80 -36 -80 -118q0 -52 32 -94t93 -62l6 -2q-76 -19 -112 -83.5t-21 -143.5q27 129 207 129h191v110z" />
    <glyph glyph-name="afii57413" unicode="&#x625;" horiz-adv-x="451" 
d="M115 199v1274l243 -242l-82 -49v-983h-161zM384 -180h-125q-34 0 -70 33q-32 29 -35 61q0 37 47 37q31 0 58 -28q8 21 8 49q0 12 -16 35q12 10 22 26q24 58 -14 103v-39q-6 -30 -68 -45q-24 -2 -74 -11q-64 -30 -65 -86q-2 -80 104 -141l7 -4q-68 -13 -98.5 -68
t-12.5 -122q6 49 53 79q42 27 119 27h160v94z" />
    <glyph glyph-name="afii57414" unicode="&#x626;" horiz-adv-x="811" 
d="M756 709l-58 -41l-247 241l-189 -282q-36 -53 -37 -88q-1 -38 25 -82l295 -320q18 -30 18 -65q0 -53 -47 -107q-64 -74 -184 -76q-76 -1 -142 41q-73 47 -73 121q0 101 71 101q32 0 48 -48q23 54 2 95q-31 47 -70 59q15 27 12 61q-3 37 -37 62t-71 27q-15 1 -27 -5
q45 -63 47 -116q1 -34 -21.5 -103t-21.5 -108q2 -130 116 -212q105 -75 238 -69q119 5 222 99q98 89 98 202q0 50 -18 90l-5 11l-270 295q-5 5 -16 22q-5 15 -5 28q0 19 11 38l53 73l283 -268v324zM457 1090h-152q-43 0 -82 38q-37 35 -39 74q-1 20 17 33q15 11 39 14
q36 0 69 -37q11 29 8 60q-3 15 -20 39q37 24 39 82q1 38 -27 71q3 -24 0 -45q-6 -40 -80 -53q-13 -2 -88 -12q-80 -38 -80 -119q0 -67 53 -116q30 -28 72 -40l7 -2q-77 -18 -114 -85q-35 -63 -20 -142q14 56 64 92q41 30 143 37l191 14v97z" />
    <glyph glyph-name="afii57415" unicode="&#x627;" horiz-adv-x="451" 
d="M115 -1v1474l243 -242l-82 -49v-1183h-161z" />
    <glyph glyph-name="afii57416" unicode="&#x628;" horiz-adv-x="1475" 
d="M0 0zM20 201h1358v616l-243 -242l71 -49v-145h-841v127zM916 -64l-138 139l-137 -139l137 -138z" />
    <glyph glyph-name="afii57417" unicode="&#x629;" horiz-adv-x="758" 
d="M61 559q-30 -45 -30 -201v-157h628v835l-192 -100l41 -49v-43l-14 -10q-28 -20 -119 -29t-107 -19q-61 -37 -61 -106q0 -17 6 -64q-109 7 -152 -57zM483 657v-276h-278q-9 48 20 94q23 37 80 39q22 1 43 -8q-18 28 -20 63q-4 95 114 99q23 1 41 -11zM287 1155l-115 117
l115 114l231 -231l113 117l-113 114z" />
    <glyph glyph-name="afii57418" unicode="&#x62a;" horiz-adv-x="1475" 
d="M0 200zM655 991l-114 117l114 115l232 -232l112 117l-112 115zM20 201h1358v616l-243 -242l71 -49v-145h-841v127z" />
    <glyph glyph-name="afii57419" unicode="&#x62b;" horiz-adv-x="1475" 
d="M874 1346l-110 112l-111 -112l111 -111zM651 1014l-108 110l108 109l219 -219l107 110l-107 109zM20 201h1358v616l-243 -242l71 -49v-145h-841v127z" />
    <glyph glyph-name="afii57420" unicode="&#x62c;" horiz-adv-x="860" 
d="M109 893v-209l14 -10q50 -36 119 -37q108 -2 131 -10q29 -6 67 -68q41 -67 37 -123l-2 -28l-18 -5q-168 -47 -281 -152q-152 -142 -149 -279q3 -142 118 -242q101 -88 224 -88q233 0 317 232l12 33l-36 36l-13 -32q-31 -76 -90.5 -121.5t-134.5 -46.5q-104 -2 -167 84
q-56 76 -56 183q0 111 98 192q106 88 264 88h234v144h-197v62q0 99 -31 163q-33 69 -127 132q-41 28 -153 34q-106 7 -150 43zM590 32l-123 124l-123 -124l123 -123z" />
    <glyph glyph-name="afii57421" unicode="&#x62d;" horiz-adv-x="860" 
d="M109 893v-209l14 -10q50 -36 119 -37q108 -2 131 -10q29 -6 67 -68q41 -67 37 -123l-2 -28l-18 -5q-155 -43 -281 -161q-152 -142 -149 -279q3 -142 118 -242q101 -88 224 -88q233 0 317 232l12 33l-36 36l-13 -32q-31 -76 -90.5 -121.5t-134.5 -46.5q-104 -2 -167 84
q-56 76 -56 183q0 111 98 192q106 88 264 88h234v153h-197v62q0 99 -31 163q-33 69 -127 132q-41 28 -153 34q-106 7 -150 43z" />
    <glyph glyph-name="afii57422" unicode="&#x62e;" horiz-adv-x="860" 
d="M109 893v-209l14 -10q50 -36 119 -37q108 -2 131 -10q29 -6 67 -68q41 -67 37 -123l-2 -28l-18 -5q-155 -43 -281 -161q-152 -142 -149 -279q3 -142 118 -242q101 -88 224 -88q233 0 317 232l12 33l-36 36l-13 -32q-31 -76 -90.5 -121.5t-134.5 -46.5q-104 -2 -167 84
q-56 76 -56 183q0 111 98 192q106 88 264 88h234v153h-197v62q0 99 -31 163q-33 69 -127 132q-41 28 -153 34q-106 7 -150 43zM598 1123l-121 125l-123 -125l123 -123z" />
    <glyph glyph-name="afii57423" unicode="&#x62f;" horiz-adv-x="1229" 
d="M1161 719h-932v98l66 88l-223 92v-460h913v-336q0 -35 -24 -62q-19 -22 -56 -28q-35 -3 -65 24q-29 32 -29 68v178h-739v-180h579q0 -135 70 -199q16 -12 90 -39q69 -25 90 -61l10 -17l11 19q20 35 86.5 53t87.5 43q65 77 65 201v518z" />
    <glyph glyph-name="afii57424" unicode="&#x630;" horiz-adv-x="1229" 
d="M428 1284l-135 137l-135 -137l135 -135zM1161 719h-932v98l66 88l-223 92v-460h913v-336q0 -35 -24 -62q-19 -22 -56 -28q-35 -3 -65 24q-29 32 -29 68v178h-739v-180h579q0 -135 70 -199q16 -12 90 -39q69 -25 90 -61l10 -17l11 19q20 35 86.5 53t87.5 43q65 77 65 201
v518z" />
    <glyph glyph-name="afii57425" unicode="&#x631;" horiz-adv-x="565" 
d="M416 528q-70 119 -185 213l-28 23q21 -53 22 -102q2 -124 -90 -203l58 -21q69 -25 111 -128q37 -92 30 -173q-12 -142 -132.5 -234.5t-271.5 -92.5q-31 0 -61 4l-59 8l55 -19q124 -43 231 -43q220 0 348 193q64 96 66 264q2 149 -94 311z" />
    <glyph glyph-name="afii57426" unicode="&#x632;" horiz-adv-x="565" 
d="M416 528q-70 119 -185 213l-28 23q21 -53 22 -102q2 -124 -90 -203l58 -21q69 -25 111 -128q37 -92 30 -173q-12 -142 -132.5 -234.5t-271.5 -92.5q-31 0 -61 4l-59 8l55 -19q124 -43 231 -43q220 0 348 193q64 96 66 264q2 149 -94 311zM358 1233l-137 139l-137 -139
l141 -137z" />
    <glyph glyph-name="afii57427" unicode="&#x633;" horiz-adv-x="1659" 
d="M1599 119v819l-233 -238l78 -53v-266h-184v473l-244 -236l80 -53v-184h-213v410l-246 -238l70 -45l8 -49q9 -57 10 -135q3 -367 -295 -371q-181 -2 -258 158q-21 43 -22 98q-2 78 57 186q35 64 80 142q32 72 35 139q2 38 -17 98q-10 47 -14 82q0 49 43 92l6 6
q-21 12 -53 15q-47 0 -77 -31t-32 -78q-1 -32 17 -57q-133 32 -136 -109q-1 -58 35 -106l6 -8v6q0 89 58 90q69 2 71 -62q1 -45 -51 -145q-21 -38 -65 -117t-45 -192q-2 -156 98 -262q111 -118 311 -109q339 15 383 379l4 33h627z" />
    <glyph glyph-name="afii57428" unicode="&#x634;" horiz-adv-x="1659" 
d="M1599 119v819l-233 -238l78 -53v-266h-184v473l-244 -236l80 -53v-184h-213v410l-246 -238l70 -45l8 -49q9 -57 10 -135q3 -367 -295 -371q-181 -2 -258 158q-21 43 -22 98q-2 78 57 186q35 64 80 142q32 72 35 139q2 38 -17 98q-10 47 -14 82q0 49 43 92l6 6
q-21 12 -53 15q-47 0 -77 -31t-32 -78q-1 -32 17 -57q-133 32 -136 -109q-1 -58 35 -106l6 -8v6q0 89 58 90q69 2 71 -62q1 -45 -51 -145q-21 -38 -65 -117t-45 -192q-2 -156 98 -262q111 -118 311 -109q339 15 383 379l4 33h627zM1208 1346l-110 112l-111 -112l111 -111z
M985 1014l-108 110l108 109l219 -219l107 110l-107 109z" />
    <glyph glyph-name="afii57429" unicode="&#x635;" horiz-adv-x="1909" 
d="M1133 561h507v-360q3 -31 -18 -62q-19 -21 -55 -28q-35 0 -62 26q-22 29 -22 66v178h-588q45 49 86 85q96 86 152 95zM322 938l18 16l-10 4q-18 7 -37 7q-110 0 -115 -105q-1 -32 17 -57q-133 32 -136 -109q-1 -58 35 -106l6 -8v6q0 29 25 63q22 30 55 33q29 0 56 -25
q23 -22 18 -45q-55 -88 -150 -276q-19 -85 -20 -154q-2 -173 109 -284.5t284 -108.5q176 3 285 117q102 106 102 266v29h449v-66q0 -49 51.5 -102t122.5 -74q51 -15 76 -57l10 -17l10 19q18 33 74 61q72 35 88 49q67 56 67 119v608h-661q-105 0 -195 -69q-51 -39 -69 -123
v256q-20 -51 -113 -152q-39 -42 -131 -75l76 -50v-196q0 -148 -35 -217q-51 -101 -187 -128q-24 -5 -57 -5q-101 0 -170.5 58t-89.5 161q-1 10 -2 30.5t-2 30.5q0 115 111 275q37 54 39 114q1 29 -23 107q-15 50 -20 98q0 47 39 82z" />
    <glyph glyph-name="afii57430" unicode="&#x636;" horiz-adv-x="1909" 
d="M1010 1247l-138 139l-137 -139l137 -137zM1133 561h507v-360q3 -31 -18 -62q-19 -21 -55 -28q-35 0 -62 26q-22 29 -22 66v178h-588q45 49 86 85q96 86 152 95zM322 938l18 16l-10 4q-18 7 -37 7q-110 0 -115 -105q-1 -32 17 -57q-133 32 -136 -109q-1 -58 35 -106l6 -8
v6q0 29 25 63q22 30 55 33q29 0 56 -25q23 -22 18 -45q-55 -88 -150 -276q-19 -85 -20 -154q-2 -173 109 -284.5t284 -108.5q176 3 285 117q102 106 102 266v29h449v-66q0 -49 51.5 -102t122.5 -74q51 -15 76 -57l10 -17l10 19q18 33 74 61q72 35 88 49q67 56 67 119v608
h-661q-105 0 -195 -69q-51 -39 -69 -123v256q-20 -51 -113 -152q-39 -42 -131 -75l76 -50v-196q0 -148 -35 -217q-51 -101 -187 -128q-24 -5 -57 -5q-101 0 -170.5 58t-89.5 161q-1 10 -2 30.5t-2 30.5q0 115 111 275q37 54 39 114q1 29 -23 107q-15 50 -20 98q0 47 39 82z
" />
    <glyph glyph-name="afii57431" unicode="&#x637;" horiz-adv-x="1526" 
d="M1186 86q-64 6 -74 98l-2 19v178h-586q5 15 49 84q61 96 189 96h516v-360q0 -11 2 -19q0 -36 -29 -67.5t-65 -28.5zM152 481l-121 -280h911v-66q0 -128 180 -180q49 -14 66 -57l10 -25l14 31q21 46 70 51q62 7 115 63.5t53 135.5v587h-676q-112 0 -188 -71
q-53 -50 -68 -121v930l-244 -242l82 -49v-807h-143z" />
    <glyph glyph-name="afii57432" unicode="&#x638;" horiz-adv-x="1526" 
d="M1186 86q-64 6 -74 98l-2 19v178h-586q5 15 49 84q61 96 189 96h516v-360q0 -11 2 -19q0 -36 -29 -67.5t-65 -28.5zM1042 1239l-131 133l-131 -133l131 -131zM152 481l-121 -280h911v-66q0 -128 180 -180q49 -14 66 -57l10 -25l14 31q21 46 70 51q62 7 115 63.5t53 135.5
v587h-676q-112 0 -188 -71q-53 -50 -68 -121v930l-244 -242l82 -49v-807h-143z" />
    <glyph glyph-name="afii57433" unicode="&#x639;" horiz-adv-x="891" 
d="M817 248v158h-323q-75 0 -136 64t-61 140q0 39 18 68q46 75 127 76q85 1 146 -90q43 31 43 98q0 60 -66 88q31 24 53 72q20 43 21 90q2 67 -45 129q7 -51 -4 -86q-21 -66 -92 -90h-6q-140 0 -189 -21q-184 -79 -184 -250q0 -88 49 -170.5t129 -130.5l43 -26l-23 -15
q-139 -91 -200 -164q-81 -98 -84 -225q-3 -141 114 -242q102 -88 227 -88q18 0 36 2q199 20 282 230l13 33l-37 36l-13 -32q-31 -76 -90.5 -121.5t-134.5 -46.5q-96 -2 -156 67q-58 66 -65 166q-8 106 58 185t171 88l92 8h287z" />
    <glyph glyph-name="afii57434" unicode="&#x63a;" horiz-adv-x="891" 
d="M496 1268l-148 139l-127 -139l137 -138zM817 248v158h-323q-75 0 -136 64t-61 140q0 39 18 68q46 75 127 76q85 1 146 -90q43 31 43 98q0 60 -66 88q31 24 53 72q20 43 21 90q2 67 -45 129q7 -51 -4 -86q-21 -66 -92 -90h-6q-140 0 -189 -21q-184 -79 -184 -250
q0 -88 49 -170.5t129 -130.5l43 -26l-23 -15q-139 -91 -200 -164q-81 -98 -84 -225q-3 -141 114 -242q102 -88 227 -88q18 0 36 2q199 20 282 230l13 33l-37 36l-13 -32q-31 -76 -90.5 -121.5t-134.5 -46.5q-96 -2 -156 67q-58 66 -65 166q-8 106 58 185t171 88l92 8h287z
" />
    <glyph glyph-name="afii57441" unicode="&#x641;" horiz-adv-x="1540" 
d="M1294 631v217q-9 1 -30 4q-55 0 -70 -29q-31 -58 -12 -100q-56 3 -74 -43q-3 -12 -3 -24q0 -13 3 -25h186zM1053 1237l-123 125l-125 -125l125 -125zM1073 844q12 102 80 151q18 13 88 15h96q50 1 90 22l29 15v-846h-1425l309 327l49 -147h916v96h-371v125q0 98 10 131
q5 18 33 58q23 34 96 53z" />
    <glyph glyph-name="afii57442" unicode="&#x642;" horiz-adv-x="1071" 
d="M635 381q-13 52 11.5 92.5t78.5 40.5q11 0 25 -2q-14 15 -17 51q0 41 27 64q8 7 37 10q23 0 41 8l18 8v-272h-221zM647 1090l-115 116l115 115l232 -231l112 116l-112 115zM1028 879l-16 -9q-46 -26 -170.5 -33.5t-143.5 -21.5q-57 -39 -59 -135q-1 -32 4 -62h-20
q-54 0 -84 -25q-19 -16 -52 -71l-6 -10q-22 -58 -22 -154v-157h395l-2 -19q-11 -104 -100 -169q-81 -58 -191 -62q-118 -4 -213 59q-104 69 -104 187q0 59 37 179q37 117 36 163q-1 41 -22 114.5t-21 98.5q0 15 11 51l10 33l-23 -5q-73 -16 -98 -55q-19 -30 -19 -61
q0 -28 15 -60q-50 0 -80.5 -35t-30.5 -85q0 -60 35 -107l6 -8v6q0 33 24.5 63t57.5 33q51 0 64 -61q9 -42 -56 -207q-13 -52 -14 -90q-2 -160 146 -275q130 -100 278 -94q203 9 326 142q102 111 102 251v691z" />
    <glyph glyph-name="afii57443" unicode="&#x643;" horiz-adv-x="2089" 
d="M1540 684v170h-139v-170h139zM303 381h926v123h-813l643 852v-361h-86l-234 -311h488v170q0 59 49 102q44 39 86 39h207q63 6 103.5 -33t31.5 -102v-176h311l-2 -518q0 -28 -6 -90q-4 -46 -35 -68q-20 -15 -90 -45q-40 -17 -61 -55l-15 -27l-14 25q-23 40 -90 59
q-76 21 -88 35q-74 74 -74 137v244h158v-178q0 -58 8 -78q14 -37 74 -37q29 0 47 28q16 24 16 54q0 15 -6 31v303h-428v-303h-1393q75 42 134 106q69 75 106 185z" />
    <glyph glyph-name="afii57444" unicode="&#x644;" horiz-adv-x="1032" 
d="M598 1219l258 258l-4 -1301q-62 -379 -375 -387q-154 -4 -278 96q-131 106 -133 275q-1 80 38 176l2 -64q4 -119 102.5 -205.5t223.5 -86.5q183 0 238 155q26 73 26 232v823z" />
    <glyph glyph-name="afii57445" unicode="&#x645;" horiz-adv-x="750" 
d="M375 381l-4 29q-10 74 32 135q31 44 148 73l37 9v-246h-213zM737 201v653l-41 -29q-46 -32 -137 -49q-106 -19 -147 -37q-86 -37 -158 -133q-37 -49 -39 -178q-1 -36 4 -55v-172q0 -91 -69 -186q-64 -88 -150 -134q55 -15 104 -16q86 -2 146 53q70 64 96 117q0 -9 29 121
l10 45h352z" />
    <glyph glyph-name="afii57446" unicode="&#x646;" horiz-adv-x="1055" 
d="M668 1237q-15 32 -35 35q-31 0 -55 -107q-13 -58 -111 -59q-105 -2 -135 100q-1 10 -4 31q0 57 57.5 106.5t130.5 49.5q112 0 184 -109q20 -30 21 -78q2 -74 -47 -155q-51 -84 -150 -168q-121 -102 -166 -154q-122 -140 -122 -334q0 -207 147 -311q88 -62 207 -57
q102 4 174 104q65 91 67 197q1 102 -71 155q-27 20 -68 21q-58 2 -117 -49q-49 -51 -51 -127q-1 -45 25 -103l24 -53l-26 2q-31 2 -72 43q-83 83 -83 238q0 110 99 192q94 77 206 77q83 0 169 -73q139 -119 139 -342q0 -175 -116 -311q-134 -156 -326 -145q-136 8 -260 98
q-178 129 -178 377q0 87 25 192q39 164 229 336q70 59 209 178q39 48 59 80q21 47 21 96q4 16 0 27z" />
    <glyph glyph-name="afii57447" unicode="&#x647;" horiz-adv-x="758" 
d="M61 559q-30 -45 -30 -201v-157h628v835l-192 -100l41 -49v-43l-14 -10q-28 -20 -119 -29t-107 -19q-61 -37 -61 -106q0 -17 6 -64q-109 7 -152 -57zM483 657v-276h-278q-9 48 20 94q23 37 80 39q22 1 43 -8q-18 28 -20 63q-4 95 114 99q23 1 41 -11z" />
    <glyph glyph-name="afii57470" unicode="&#x6be;" horiz-adv-x="1137" 
d="M821 600l-22 25l-58 -58q-73 -73 -73 -184q0 -70 31 -117.5t89 -48.5q75 -2 110 60q19 35 20 83q3 127 -97 240zM-20 381h319l-166 219l473 451l201 -211q70 104 70 233q0 93 -54 189q124 -124 123 -254q-2 -170 -55 -260l88 -113q77 -99 78 -279q2 -291 -262 -319
q-156 -17 -256 164h-564zM598 801l-229 -219l151 -217q0 85 10 120q14 30 60 101q34 52 110 94z" />
    <glyph glyph-name="afii57448" unicode="&#x648;" horiz-adv-x="741" 
d="M467 381h-217v12q0 49 10 70q18 36 76 26q-21 37 0 86q7 17 43 21q24 1 72 6l16 2v-223zM594 815q-21 -18 -162.5 -42.5t-155.5 -35.5q-60 -47 -75 -159h-17q-63 0 -96 -56q-27 -46 -27 -176v-145h435v-25q0 -50 -2 -70q-14 -141 -107 -223q-82 -72 -211 -76
q-30 -1 -53 5l-60 8l56 -19q112 -38 205 -39q165 -2 284 172q45 66 45 277v655z" />
    <glyph glyph-name="afii57449" unicode="&#x649;" horiz-adv-x="936" 
d="M451 909l-189 -282q-36 -53 -37 -88q-1 -38 25 -82l295 -320q18 -30 18 -65q0 -53 -47 -107q-64 -74 -184 -76q-76 -1 -142 41q-73 47 -73 121q0 101 71 101q32 0 48 -48q23 54 2 95q-31 47 -70 59q15 27 12 61q-3 37 -37 62t-71 27q-15 1 -27 -5q45 -63 47 -116
q1 -34 -21.5 -103t-21.5 -108q2 -130 116 -212q105 -75 238 -69q119 5 222 99q98 89 98 202q0 50 -18 90l-5 11l-270 295q-5 5 -16 22q-5 15 -5 28q0 19 11 38l53 73l410 -452h61v180h-20z" />
    <glyph glyph-name="afii57450" unicode="&#x64a;" horiz-adv-x="811" 
d="M756 709l-58 -41l-247 241l-189 -282q-36 -53 -37 -88q-1 -38 25 -82l295 -320q18 -30 18 -65q0 -53 -47 -107q-64 -74 -184 -76q-76 -1 -142 41q-73 47 -73 121q0 101 71 101q32 0 48 -48q23 54 2 95q-31 47 -70 59q15 27 12 61q-3 37 -37 62t-71 27q-15 1 -27 -5
q45 -63 47 -116q1 -34 -21.5 -103t-21.5 -108q2 -130 116 -212q105 -75 238 -69q119 5 222 99q98 89 98 202q0 50 -18 90l-5 11l-270 295q-5 5 -16 22q-5 15 -5 28q0 19 11 38l53 73l283 -268v324zM334 -487l-109 110l109 109l219 -219l106 110l-106 109z" />
    <glyph glyph-name="uni0676" unicode="&#x676;" horiz-adv-x="741" 
d="M467 381h-217v12q0 49 10 70q18 36 76 26q-21 37 0 86q7 17 43 21q24 1 72 6l16 2v-223zM594 815q-21 -18 -162.5 -42.5t-155.5 -35.5q-60 -47 -75 -159h-17q-63 0 -96 -56q-27 -46 -27 -176v-145h435v-25q0 -50 -2 -70q-14 -141 -107 -223q-82 -72 -211 -76
q-30 -1 -53 5l-60 8l56 -19q112 -38 205 -39q165 -2 284 172q45 66 45 277v655zM580 1075h-152q-42 0 -82 39q-37 36 -39 74q-1 18 17 33q16 11 38 14q37 0 70 -37q12 31 8 59q-2 15 -20 39q37 26 39 82q1 38 -27 72q2 -15 2 -26t-2 -19q-12 -40 -82 -53q-23 -4 -86 -13
q-80 -36 -80 -118q0 -52 32 -94t93 -62l6 -2q-76 -19 -112 -83.5t-21 -143.5q27 129 207 129h191v110z" />
    <glyph glyph-name="uni0695" unicode="&#x695;" horiz-adv-x="565" 
d="M416 528q-70 119 -185 213l-28 23q21 -53 22 -102q2 -124 -90 -203l58 -21q69 -25 111 -128q37 -92 30 -173q-12 -142 -132.5 -234.5t-271.5 -92.5q-31 0 -61 4l-59 8l55 -19q124 -43 231 -43q220 0 348 193q64 96 66 264q2 149 -94 311zM466 -420l-14 -31l-10 -29
l-14 -42l-47 -161l-40 -149q-21 -78 -71 -79q-33 0 -41 7q-6 10 -24 63q-8 25 -28 80q-12 29 -37 92l-100 265h100q17 -19 34 -62l40 -104l50 -132q9 21 36 96l38 121q19 58 34 81h93z" />
    <glyph glyph-name="uniE001" unicode="&#xe001;" horiz-adv-x="532" 
d="M551 201v180h-68q-2 11 -20 57q-52 134 -209 279l-51 47q21 -53 22 -102q2 -124 -90 -203l58 -21q69 -25 111 -128q38 -93 30 -173q-15 -152 -158 -243q-127 -80 -307 -80h-29l25 -11q114 -50 231 -51q226 -2 348 201q67 111 64 248h43zM466 -420l-14 -31l-10 -29
l-14 -42l-47 -161l-40 -149q-21 -78 -71 -79q-33 0 -41 7q-6 10 -24 63q-8 25 -28 80q-12 29 -37 92l-100 265h100q17 -19 34 -62l40 -104l50 -132q9 21 36 96l38 121q19 58 34 81h93z" />
    <glyph glyph-name="uni06b5" unicode="&#x6b5;" horiz-adv-x="1032" 
d="M598 1219l258 258l-4 -1301q-62 -379 -375 -387q-154 -4 -278 96q-131 106 -133 275q-1 80 38 176l2 -64q4 -119 102.5 -205.5t223.5 -86.5q183 0 238 155q26 73 26 232v823zM826 1909l-13 -31l-10 -28l-14 -43l-48 -160l-40 -150q-21 -78 -71 -78q-33 0 -41 7
q-6 10 -24 62q-8 26 -27 81q-13 29 -38 92l-100 265h100q17 -20 34 -63l41 -104l49 -131q9 21 36 96l39 121q18 57 33 81h93z" />
    <glyph glyph-name="uniE007" unicode="&#xe007;" horiz-adv-x="934" 
d="M872 201l-4 -25q-61 -379 -374 -387q-155 -4 -279 96q-131 106 -133 275q-1 81 39 176l2 -64q4 -118 101 -205t220 -90q36 -1 76 11q123 36 168 151q29 74 29 228v727l-99 28l259 258l2 -999h96v-180h-103zM826 1909l-13 -31l-10 -28l-14 -43l-48 -160l-40 -150
q-21 -78 -71 -78q-33 0 -41 7q-6 10 -24 62q-8 26 -27 81q-13 29 -38 92l-100 265h100q17 -20 34 -63l41 -104l49 -131q9 21 36 96l39 121q18 57 33 81h93z" />
    <glyph glyph-name="uniE008" unicode="&#xe008;" horiz-adv-x="424" 
d="M-39 201h397v1278l-243 -242l82 -49v-807h-228zM406 1909l-13 -31l-10 -28l-14 -43l-48 -160l-40 -150q-21 -78 -71 -78q-33 0 -41 7q-6 10 -24 62q-8 26 -27 81q-13 29 -38 92l-99 265h99q17 -20 34 -63l41 -104l49 -131q9 21 36 96l39 121q18 57 33 81h93z" />
    <glyph glyph-name="uniE009" unicode="&#xe009;" horiz-adv-x="424" 
d="M-15 201h450v180h-63v1098l-244 -246l72 -53v-799h-217zM407 1909l-14 -31l-10 -28l-14 -43l-47 -160l-40 -150q-21 -78 -71 -78q-33 0 -41 7q-6 10 -24 62q-8 26 -28 81q-12 29 -37 92l-100 265h100q17 -20 34 -63l41 -104l49 -131q9 21 36 96l38 121q19 57 34 81h93z
" />
    <glyph glyph-name="uni06c6" unicode="&#x6c6;" horiz-adv-x="741" 
d="M467 381h-217v12q0 49 10 70q18 36 76 26q-21 37 0 86q7 17 43 21q24 1 72 6l16 2v-223zM594 815q-21 -18 -162.5 -42.5t-155.5 -35.5q-60 -47 -75 -159h-17q-63 0 -96 -56q-27 -46 -27 -176v-145h435v-25q0 -50 -2 -70q-14 -141 -107 -223q-82 -72 -211 -76
q-30 -1 -53 5l-60 8l56 -19q112 -38 205 -39q165 -2 284 172q45 66 45 277v655zM626 1489l-13 -31l-10 -28l-14 -43l-48 -160l-40 -150q-21 -78 -71 -78q-33 0 -41 7q-6 10 -24 62q-8 26 -27 81q-13 29 -38 92l-100 265h100q17 -20 34 -63l41 -104l49 -131q9 21 36 96
l39 121q18 57 33 81h93z" />
    <glyph glyph-name="uni06ce" unicode="&#x6ce;" horiz-adv-x="811" 
d="M756 709l-58 -41l-247 241l-189 -282q-36 -53 -37 -88q-1 -38 25 -82l295 -320q18 -30 18 -65q0 -53 -47 -107q-64 -74 -184 -76q-76 -1 -142 41q-73 47 -73 121q0 101 71 101q32 0 48 -48q23 54 2 95q-31 47 -70 59q15 27 12 61q-3 37 -37 62t-71 27q-15 1 -27 -5
q45 -63 47 -116q1 -34 -21.5 -103t-21.5 -108q2 -130 116 -212q105 -75 238 -69q119 5 222 99q98 89 98 202q0 50 -18 90l-5 11l-270 295q-5 5 -16 22q-5 15 -5 28q0 19 11 38l53 73l283 -268v324zM466 1489l-14 -31l-10 -28l-14 -43l-47 -160l-40 -150q-21 -78 -71 -78
q-33 0 -41 7q-6 10 -24 62q-8 26 -28 81q-12 29 -37 92l-100 265h100q17 -20 34 -63l41 -104l49 -131q9 21 36 96l38 121q19 57 34 81h93z" />
    <glyph glyph-name="uniE004" unicode="&#xe004;" horiz-adv-x="936" 
d="M451 909l-189 -282q-36 -53 -37 -88q-1 -38 25 -82l295 -320q18 -30 18 -65q0 -53 -47 -107q-64 -74 -184 -76q-76 -1 -142 41q-73 47 -73 121q0 101 71 101q32 0 48 -48q23 54 2 95q-31 47 -70 59q15 27 12 61q-3 37 -37 62t-71 27q-15 1 -27 -5q45 -63 47 -116
q1 -34 -21.5 -103t-21.5 -108q2 -130 116 -212q105 -75 238 -69q119 5 222 99q98 89 98 202q0 50 -18 90l-5 11l-270 295q-5 5 -16 22q-5 15 -5 28q0 19 11 38l53 73l410 -452h61v180h-20zM466 1489l-14 -31l-10 -28l-14 -43l-47 -160l-40 -150q-21 -78 -71 -78q-33 0 -41 7
q-6 10 -24 62q-8 26 -28 81q-12 29 -37 92l-100 265h100q17 -20 34 -63l41 -104l49 -131q9 21 36 96l38 121q19 57 34 81h93z" />
    <glyph glyph-name="uniE005" unicode="&#xe005;" horiz-adv-x="639" 
d="M141 -296l-125 129l125 127l256 -256l123 129l-123 127zM-16 201h524v714l-242 -239l70 -49v-246h-350zM466 1489l-13 -31l-10 -28l-14 -43l-48 -160l-40 -150q-21 -78 -71 -78q-33 0 -41 7q-6 10 -24 62q-8 26 -27 81q-13 29 -38 92l-100 265h100q17 -20 34 -63l41 -104
l49 -131q9 21 36 96l39 121q18 57 33 81h93z" />
    <glyph glyph-name="uniE006" unicode="&#xe006;" horiz-adv-x="520" 
d="M140 -179l-125 129l125 127l256 -256l123 129l-123 127zM-23 201h543v180h-82v426l-254 -256l80 -49v-121h-282zM466 1489l-13 -31l-10 -28l-14 -43l-48 -160l-40 -150q-21 -78 -71 -78q-33 0 -41 7q-6 10 -24 62q-8 26 -27 81q-13 29 -38 92l-100 265h100q17 -20 34 -63
l41 -104l49 -131q9 21 36 96l39 121q18 57 33 81h93z" />
    <glyph glyph-name="aekurdiFinal" unicode="&#xe000;" horiz-adv-x="719" 
d="M231 381v78q0 66 50 116t118 50q50 0 95 -29v-215h-263zM737 201v180h-63v745l-244 -174l64 -63v-131q-62 21 -121 22q-153 2 -250 -137q-60 -86 -60 -223v-219h674z" />
    <glyph glyph-name="nonJoiner" unicode="&#x200c;" horiz-adv-x="0" 
 />
    <glyph glyph-name="glyph330" horiz-adv-x="0" 
 />
    </font>
</defs>
</svg>
